<svg width="195" height="39" viewBox="0 0 195 39" fill="none" xmlns="http://www.w3.org/2000/svg">
<path d="M35.6406 1.5C35.9219 1.65625 36.1094 1.85937 36.2031 2.10938C36.2969 2.35938 36.3594 2.67188 36.3906 3.04688C36.3906 3.29688 36.375 3.53125 36.3438 3.75C36.3438 3.9375 36.375 4.15625 36.4375 4.40625C36.3438 4.59375 36.2188 4.78125 36.0625 4.96875C35.9062 5.125 35.7969 5.32812 35.7344 5.57812C35.4531 6.26562 35.1094 6.875 34.7031 7.40625C34.3281 7.9375 33.9531 8.51562 33.5781 9.14062C33.2344 9.45312 32.9531 9.84375 32.7344 10.3125C32.5469 10.75 32.3594 11.2188 32.1719 11.7188C31.5469 12.75 30.9375 13.7969 30.3438 14.8594C29.7812 15.9219 29.2344 17 28.7031 18.0938C29.1406 18.1875 29.5781 18.2812 30.0156 18.375C30.4844 18.4688 30.9062 18.6094 31.2812 18.7969C31.4375 19.0469 31.5469 19.1875 31.6094 19.2188C31.7031 19.2188 31.7188 19.2656 31.6562 19.3594C31.7188 19.7969 31.6875 20.0938 31.5625 20.25C31.4375 20.4062 31.25 20.4219 31 20.2969C30.7812 20.3594 30.6094 20.3594 30.4844 20.2969C29.9844 20.4219 29.5156 20.5156 29.0781 20.5781C28.6406 20.6406 28.1406 20.7031 27.5781 20.7656C27.3906 21.1719 27.2031 21.5625 27.0156 21.9375C26.8281 22.3125 26.6406 22.7031 26.4531 23.1094C25.5156 24.7656 24.6562 26.4375 23.875 28.125C23.125 29.7812 22.4219 31.5 21.7656 33.2812C21.7031 33.5625 21.6406 33.8281 21.5781 34.0781C21.5156 34.3281 21.4219 34.5625 21.2969 34.7812C21.2344 35.1562 21.1406 35.4844 21.0156 35.7656C20.9531 35.9219 20.9062 36.0625 20.875 36.1875C20.8438 36.3438 20.7969 36.5 20.7344 36.6562C20.6406 36.9062 20.5 37.0938 20.3125 37.2188C20.1562 37.3438 20.0312 37.5156 19.9375 37.7344C19.75 37.5469 19.5938 37.5312 19.4688 37.6875C19.375 37.875 19.2969 38.0469 19.2344 38.2031C18.8906 38.2656 18.6406 38.1875 18.4844 37.9688C18.3594 37.75 18.2969 37.5156 18.2969 37.2656C18.1719 37.1094 18.0156 37.0312 17.8281 37.0312C17.6719 37.0625 17.5156 37 17.3594 36.8438C17.1094 35.9375 16.875 35.2031 16.6562 34.6406C16.4375 34.0781 16.2031 33.5469 15.9531 33.0469C15.8906 32.7969 15.8281 32.5781 15.7656 32.3906C15.7031 32.1719 15.6406 31.9531 15.5781 31.7344C15.5156 31.5781 15.4375 31.4219 15.3438 31.2656C15.2812 31.1094 15.2188 30.9531 15.1562 30.7969C15.0938 30.7031 15.0625 30.6094 15.0625 30.5156C15.0625 30.4219 15.0312 30.3281 14.9688 30.2344C14.8125 29.8906 14.625 29.5469 14.4062 29.2031C14.1875 28.8594 13.9844 28.5312 13.7969 28.2188C13.5469 27.9062 13.3906 27.6719 13.3281 27.5156C13.2656 27.3594 13.1562 27.2188 13 27.0938C12.8125 26.7188 12.7188 26.5 12.7188 26.4375C12.7188 26.3438 12.6875 26.2656 12.625 26.2031C12.4062 25.9531 12.25 25.7656 12.1562 25.6406C12.0625 25.5156 11.9531 25.4219 11.8281 25.3594C11.6719 25.2656 11.5 25.1875 11.3125 25.125C11.125 25.0625 10.9531 24.9844 10.7969 24.8906C10.6406 24.8281 10.4688 24.7656 10.2812 24.7031C10.125 24.6094 9.9375 24.5312 9.71875 24.4688C9.4375 25.0312 9.20312 25.625 9.01562 26.25C8.82812 26.875 8.54688 27.4375 8.17188 27.9375C7.98438 28.375 7.76562 28.8125 7.51562 29.25C7.29688 29.6562 7.09375 30.0781 6.90625 30.5156C6.75 30.7344 6.64062 30.9844 6.57812 31.2656C6.51562 31.5156 6.42188 31.7656 6.29688 32.0156C6.20312 32.2031 6.09375 32.3906 5.96875 32.5781C5.84375 32.7656 5.71875 32.9531 5.59375 33.1406C5.25 33.7031 4.8125 34.1875 4.28125 34.5938C3.78125 35 3.3125 35.4531 2.875 35.9531C2.53125 36.2344 2.23438 36.4062 1.98438 36.4688C1.76562 36.5625 1.53125 36.5312 1.28125 36.375C1.1875 36.25 1.09375 36.2344 1 36.3281C0.9375 36.4531 0.875 36.5469 0.8125 36.6094C0.59375 36.6094 0.453125 36.5625 0.390625 36.4688C0.296875 36.4062 0.1875 36.3125 0.0625 36.1875C0.125 35.9062 0.234375 35.6562 0.390625 35.4375C0.515625 35.2188 0.640625 34.9844 0.765625 34.7344C0.921875 34.6719 1.01562 34.5469 1.04688 34.3594C1.07812 34.1719 1.15625 34.0312 1.28125 33.9375C1.375 33.5 1.48438 33.1094 1.60938 32.7656C1.76562 32.4219 1.96875 32.0938 2.21875 31.7812C2.28125 31.625 2.34375 31.4688 2.40625 31.3125C2.46875 31.125 2.54688 30.9375 2.64062 30.75C2.73438 30.5938 2.84375 30.4531 2.96875 30.3281C3.125 30.2031 3.23438 30.0625 3.29688 29.9062C3.51562 29.2188 3.73438 28.6875 3.95312 28.3125C4.17188 27.9062 4.39062 27.5 4.60938 27.0938C4.82812 26.4375 5.07812 25.8281 5.35938 25.2656C5.64062 24.6719 5.9375 24.0781 6.25 23.4844C6.09375 23.4219 6.01562 23.2812 6.01562 23.0625C6.01562 22.8125 5.9375 22.6406 5.78125 22.5469C5.71875 21.8594 5.48438 21.3594 5.07812 21.0469C5.23438 20.8281 5.3125 20.625 5.3125 20.4375C5.375 20.375 5.45312 20.3125 5.54688 20.25C5.67188 20.1875 5.8125 20.125 5.96875 20.0625C6.09375 20 6.20312 19.9531 6.29688 19.9219C6.39062 19.8594 6.51562 19.8125 6.67188 19.7812C6.92188 19.75 7.15625 19.7344 7.375 19.7344C7.625 19.7031 7.875 19.6562 8.125 19.5938C8.34375 19.25 8.51562 18.8906 8.64062 18.5156C8.76562 18.1406 8.95312 17.8125 9.20312 17.5312C9.23438 17.4375 9.28125 17.3438 9.34375 17.25C9.40625 17.1562 9.42188 17.0625 9.39062 16.9688C9.64062 16.6562 9.85938 16.3125 10.0469 15.9375C10.2344 15.5625 10.4531 15.2031 10.7031 14.8594C10.9219 14.3594 11.1719 13.9062 11.4531 13.5C11.7656 13.0625 12.0469 12.5781 12.2969 12.0469C12.5781 11.7031 12.8125 11.25 13 10.6875C13.2188 10.125 13.4062 9.60938 13.5625 9.14062C13.625 8.98438 13.6562 8.85938 13.6562 8.76562C13.6562 8.64062 13.6875 8.51562 13.75 8.39062C13.8125 8.23438 13.9062 8.0625 14.0312 7.875C14.1562 7.6875 14.2656 7.5 14.3594 7.3125C14.4844 7.09375 14.5938 6.89062 14.6875 6.70312C14.7812 6.51562 14.8594 6.29688 14.9219 6.04688C14.8281 5.85938 14.6719 5.82813 14.4531 5.95312C14.2656 6.04688 14.0469 6.15625 13.7969 6.28125C13.5469 6.40625 13.3125 6.53125 13.0938 6.65625C12.9062 6.78125 12.7031 6.92187 12.4844 7.07812C11.1094 7.76562 9.90625 8.54688 8.875 9.42188C8.71875 9.45312 8.5625 9.5 8.40625 9.5625C8.25 9.625 8.0625 9.67188 7.84375 9.70312C7.625 9.54688 7.5 9.45312 7.46875 9.42188C7.46875 9.39062 7.45312 9.34375 7.42188 9.28125C7.51562 9.1875 7.67188 9.09375 7.89062 9C8.10938 8.90625 8.21875 8.78125 8.21875 8.625C8.1875 8.03125 8.34375 7.57812 8.6875 7.26562C9.0625 6.92187 9.42188 6.59375 9.76562 6.28125C10.2344 6 10.6406 5.78125 10.9844 5.625C11.3281 5.4375 11.6562 5.21875 11.9688 4.96875C12.375 4.8125 12.7656 4.64062 13.1406 4.45312C13.5469 4.23438 13.9531 4.03125 14.3594 3.84375C14.5156 3.78125 14.6562 3.6875 14.7812 3.5625C14.9375 3.4375 15.0938 3.3125 15.25 3.1875C15.625 2.9375 16.0156 2.6875 16.4219 2.4375C16.8594 2.1875 17.2969 1.9375 17.7344 1.6875C17.9844 1.625 18.1094 1.57812 18.1094 1.54688C18.1406 1.51563 18.1875 1.48437 18.25 1.45312C18.5312 1.35938 18.75 1.28125 18.9062 1.21875C19.0938 1.125 19.2656 1.03125 19.4219 0.9375C19.6719 0.84375 19.9062 0.734375 20.125 0.609375C20.375 0.484375 20.6406 0.4375 20.9219 0.46875C21.1719 0.46875 21.4062 0.578125 21.625 0.796875C21.8438 1.01562 21.8281 1.23438 21.5781 1.45312C21.8281 1.70313 21.9531 2.04687 21.9531 2.48438C21.9531 2.92188 21.9844 3.35937 22.0469 3.79688C22.0469 3.95313 22.0625 4.10937 22.0938 4.26562C22.125 4.39062 22.125 4.51563 22.0938 4.64062C22.0625 4.79688 22 4.95312 21.9062 5.10938C21.8438 5.23437 21.8125 5.35938 21.8125 5.48438C21.6875 5.64063 21.5938 5.8125 21.5312 6C21.4688 6.15625 21.375 6.3125 21.25 6.46875C21.1875 6.75 21.0781 6.96875 20.9219 7.125C20.7656 7.28125 20.6406 7.45312 20.5469 7.64062C20.2656 7.85938 20.0469 8.0625 19.8906 8.25C19.7656 8.25 19.6875 8.3125 19.6562 8.4375C19.6562 8.53125 19.625 8.60938 19.5625 8.67188C18.9375 8.82812 18.4062 9.1875 17.9688 9.75C17.5625 10.2812 17.1562 10.8438 16.75 11.4375C16.2188 11.7812 15.7812 12.1562 15.4375 12.5625C15.3125 12.7188 15.2031 12.9062 15.1094 13.125C15.0469 13.3125 14.9531 13.5 14.8281 13.6875C14.5781 14.0938 14.3125 14.5625 14.0312 15.0938C13.75 15.5938 13.4844 16.0625 13.2344 16.5C13.1719 16.6875 13.0938 16.8594 13 17.0156C12.9062 17.1719 12.8281 17.3594 12.7656 17.5781C12.6094 17.8906 12.4844 18.125 12.3906 18.2812C12.2969 18.4375 12.2188 18.6406 12.1562 18.8906C12.6875 18.8906 13.2188 18.8594 13.75 18.7969C14.2812 18.7344 14.8125 18.6719 15.3438 18.6094C16.1562 18.6719 16.9062 18.5938 17.5938 18.375C18.3125 18.125 19.0469 17.9844 19.7969 17.9531C19.9219 17.8906 20.0312 17.875 20.125 17.9062C20.2188 17.9062 20.3281 17.8906 20.4531 17.8594C21.1406 17.8281 21.8281 17.8125 22.5156 17.8125C23.2344 17.7812 23.9688 17.7969 24.7188 17.8594C24.8438 17.7969 24.9375 17.7031 25 17.5781C25.0938 17.4531 25.1719 17.3281 25.2344 17.2031C25.2969 17.0469 25.375 16.9062 25.4688 16.7812C25.5938 16.6562 25.6875 16.5312 25.75 16.4062C25.8438 16.1562 25.9375 15.9844 26.0312 15.8906C26.125 15.7969 26.2031 15.6719 26.2656 15.5156C26.4531 15.1406 26.5625 14.9219 26.5938 14.8594C26.6562 14.7656 26.7188 14.6562 26.7812 14.5312C27.3125 13.625 27.7656 12.8594 28.1406 12.2344C28.2031 12.1406 28.25 12.0469 28.2812 11.9531C28.3438 11.8281 28.4062 11.7031 28.4688 11.5781C28.5312 11.4531 28.5625 11.3125 28.5625 11.1562C28.5938 11 28.6875 10.8594 28.8438 10.7344C28.9688 10.4219 29.1094 10.0938 29.2656 9.75C29.4531 9.40625 29.625 9.0625 29.7812 8.71875C29.9375 8.40625 30.0938 8.10938 30.25 7.82812C30.4062 7.51562 30.5625 7.20312 30.7188 6.89062C30.7812 6.73437 30.8438 6.59375 30.9062 6.46875C30.9688 6.3125 31.0312 6.15625 31.0938 6C31.3438 5.65625 31.5469 5.3125 31.7031 4.96875C31.8281 4.78125 31.9531 4.59375 32.0781 4.40625C32.2031 4.21875 32.3281 4.01562 32.4531 3.79688C32.6094 3.39063 32.7812 3.03125 32.9688 2.71875C33.0312 2.59375 33.0938 2.48438 33.1562 2.39062C33.2188 2.26563 33.2656 2.17188 33.2969 2.10938C33.3594 2.01562 33.375 1.92188 33.3438 1.82812C33.3125 1.70313 33.3125 1.59375 33.3438 1.5C33.4062 1.40625 33.4844 1.3125 33.5781 1.21875C33.6719 1.09375 33.75 0.984375 33.8125 0.890625C33.875 0.828125 33.9531 0.75 34.0469 0.65625C34.1406 0.53125 34.2656 0.515625 34.4219 0.609375C34.5156 0.515625 34.6094 0.4375 34.7031 0.375C34.8281 0.3125 34.9531 0.25 35.0781 0.1875C35.2344 0.21875 35.3438 0.28125 35.4062 0.375C35.4688 0.4375 35.5625 0.5 35.6875 0.5625C35.75 0.71875 35.7969 0.890625 35.8281 1.07812C35.8594 1.26562 35.7969 1.40625 35.6406 1.5ZM21.7188 21.1406C21.625 21.1094 21.5156 21.1094 21.3906 21.1406C21.2969 21.1406 21.2031 21.125 21.1094 21.0938C20.8906 21.0938 20.6719 21.0469 20.4531 20.9531C19.7969 20.9219 19.1406 20.9531 18.4844 21.0469C17.8594 21.1406 17.2969 21.1562 16.7969 21.0938C15.9531 21.2188 15.0938 21.3281 14.2188 21.4219C13.375 21.4844 12.5469 21.5938 11.7344 21.75C11.5469 21.7812 11.3594 21.8281 11.1719 21.8906C11.0156 21.9219 10.8594 21.9688 10.7031 22.0312C10.6406 22.1562 10.5938 22.2812 10.5625 22.4062C10.5312 22.5 10.4844 22.625 10.4219 22.7812C10.8594 23.2812 11.3594 23.7344 11.9219 24.1406C12.3281 24.6406 12.7344 25.1094 13.1406 25.5469C13.5781 25.9844 14.0156 26.4219 14.4531 26.8594C14.7031 27.0156 14.875 27.25 14.9688 27.5625C15.1562 27.7188 15.2969 27.9062 15.3906 28.125C15.5156 28.3438 15.6562 28.5625 15.8125 28.7812C16.125 28.8125 16.3281 28.9375 16.4219 29.1562C16.5156 29.375 16.6406 29.5781 16.7969 29.7656C17.0469 30.1719 17.3281 30.5781 17.6406 30.9844C17.9844 31.3906 18.25 31.8125 18.4375 32.25C18.5312 32.3125 18.5938 32.3906 18.625 32.4844C18.6562 32.5469 18.7188 32.6094 18.8125 32.6719C19.125 31.6406 19.3906 30.7344 19.6094 29.9531C19.8594 29.1719 20.1562 28.4062 20.5 27.6562C20.5312 27.4375 20.6094 27.2188 20.7344 27C20.8906 26.7812 20.9531 26.5469 20.9219 26.2969C21.2656 25.4844 21.625 24.6875 22 23.9062C22.375 23.125 22.7344 22.3125 23.0781 21.4688C22.8281 21.4375 22.5938 21.3906 22.375 21.3281C22.1875 21.2656 21.9688 21.2031 21.7188 21.1406ZM45.625 23.3438C45.6562 23.4375 45.625 23.625 45.5312 23.9062C45.375 24.0938 45.2812 24.2969 45.25 24.5156C45.1875 24.6406 45.125 24.75 45.0625 24.8438C45.0312 24.9375 45 25.0625 44.9688 25.2188C44.9062 25.4062 44.875 25.625 44.875 25.875C44.9062 26.125 44.9062 26.3594 44.875 26.5781C44.8125 26.9219 44.7656 27.2656 44.7344 27.6094C44.7031 27.9219 44.6719 28.25 44.6406 28.5938C44.6406 28.9375 44.6094 29.3281 44.5469 29.7656C44.4844 30.2031 44.4219 30.5938 44.3594 30.9375C44.4844 31.1562 44.5625 31.3906 44.5938 31.6406C44.625 31.8906 44.7344 32.0938 44.9219 32.25C45.5469 32.1562 46.0469 32.0156 46.4219 31.8281C46.7969 31.6094 47.1562 31.3125 47.5 30.9375C47.7812 30.8125 47.9688 30.7031 48.0625 30.6094C48.1875 30.5156 48.375 30.3906 48.625 30.2344C48.6875 30.1719 48.75 30.1094 48.8125 30.0469C48.875 29.9844 48.9375 29.9219 49 29.8594C49.3438 29.6719 49.5469 29.5469 49.6094 29.4844C49.7031 29.4219 49.8125 29.3594 49.9375 29.2969C50.4688 28.9531 50.875 28.5938 51.1562 28.2188C51.4375 28 51.625 27.8125 51.7188 27.6562C51.8438 27.4688 52.0938 27.2969 52.4688 27.1406C52.6875 26.8906 52.9062 26.6875 53.125 26.5312C53.375 26.3438 53.6094 26.125 53.8281 25.875C53.9844 25.875 54.1094 25.9062 54.2031 25.9688C54.2969 26.0312 54.4062 26.0938 54.5312 26.1562C54.625 26.4062 54.6406 26.6719 54.5781 26.9531C54.5156 27.2031 54.4062 27.4375 54.25 27.6562C54.0938 27.875 54.0156 28 54.0156 28.0312C54.0156 28.0625 54 28.0938 53.9688 28.125C53.875 28.25 53.75 28.375 53.5938 28.5C53.4688 28.5938 53.3594 28.7031 53.2656 28.8281C53.1094 29.1094 52.9844 29.25 52.8906 29.25C52.7969 29.25 52.7188 29.2812 52.6562 29.3438C52.375 29.5 52.1719 29.625 52.0469 29.7188C51.9531 29.8125 51.7812 29.9375 51.5312 30.0938C51.1875 30.2812 50.9844 30.4062 50.9219 30.4688C50.8594 30.5312 50.7969 30.5781 50.7344 30.6094C50.3281 31.0469 49.9531 31.4062 49.6094 31.6875C49.2969 31.9375 48.9531 32.2812 48.5781 32.7188C48.4531 32.8125 48.3281 32.9062 48.2031 33C48.0781 33.0938 47.9688 33.2188 47.875 33.375C47.5938 33.5625 47.3594 33.75 47.1719 33.9375C47.0156 34.125 46.8281 34.3438 46.6094 34.5938C46.4219 34.6875 46.2188 34.8281 46 35.0156C45.7812 35.1719 45.5469 35.3125 45.2969 35.4375C45.1719 35.5 45.0312 35.5781 44.875 35.6719C44.75 35.7344 44.6094 35.7656 44.4531 35.7656C44.0781 35.8281 43.7344 35.7969 43.4219 35.6719C43.1094 35.5469 42.8125 35.4531 42.5312 35.3906C42.4062 35.2031 42.25 35.0469 42.0625 34.9219C41.7812 34.5781 41.5781 34.1719 41.4531 33.7031C41.3281 33.2344 41.2031 32.7344 41.0781 32.2031C40.8281 32.3594 40.5938 32.5625 40.375 32.8125C40.1562 33.0625 39.875 33.2656 39.5312 33.4219C38.9062 34.0156 38.2344 34.5938 37.5156 35.1562C36.8281 35.6875 36.125 36.25 35.4062 36.8438C35.3125 36.9375 35.2188 37.0156 35.125 37.0781C35.0312 37.1406 34.9531 37.1562 34.8906 37.125C34.7344 37.3125 34.5156 37.4219 34.2344 37.4531C33.9844 37.5156 33.7031 37.5156 33.3906 37.4531C33.0781 37.2969 32.7969 37.1875 32.5469 37.125C32.2969 37.0625 32.0469 36.9688 31.7969 36.8438C31.2656 36.75 30.8281 36.5156 30.4844 36.1406C30.1094 35.7656 29.7969 35.3281 29.5469 34.8281C29.4531 34.5781 29.3906 34.3438 29.3594 34.125C29.2969 33.9062 29.2344 33.6562 29.1719 33.375C29.1406 33.125 29.0938 32.9219 29.0312 32.7656C28.9688 32.5781 28.9688 32.4062 29.0312 32.25C28.9688 32.1562 28.9531 32.0625 28.9844 31.9688C29.0156 31.8438 29.0312 31.7188 29.0312 31.5938C29 31.1562 29.0469 30.6875 29.1719 30.1875C29.2656 29.6875 29.4062 29.2344 29.5938 28.8281C29.6562 28.7031 29.7812 28.5469 29.9688 28.3594C30.0312 28.2656 30.0781 28.1719 30.1094 28.0781C30.1406 27.9844 30.1875 27.9062 30.25 27.8438C30.3125 27.75 30.4062 27.6562 30.5312 27.5625C30.6562 27.4688 30.7656 27.375 30.8594 27.2812C31.0156 27.0625 31.1875 26.875 31.375 26.7188C31.5938 26.5312 31.7969 26.3438 31.9844 26.1562C32.0781 26.0625 32.1562 25.9531 32.2188 25.8281C32.3125 25.7031 32.4375 25.6094 32.5938 25.5469C32.7188 25.3281 32.8594 25.1562 33.0156 25.0312C33.1719 24.875 33.3438 24.7188 33.5312 24.5625C34.0625 23.9062 34.7188 23.3594 35.5 22.9219C36.2812 22.4844 36.9844 21.9844 37.6094 21.4219C37.8281 21.3281 38.0156 21.2188 38.1719 21.0938C38.3281 20.9688 38.4844 20.8438 38.6406 20.7188C39.0469 20.375 39.4688 20.2656 39.9062 20.3906C40.3438 20.5156 40.75 20.625 41.125 20.7188C41.4375 21 41.7344 21.2812 42.0156 21.5625C42.3281 21.8438 42.5938 22.1562 42.8125 22.5C43.0312 22.4688 43.2812 22.4688 43.5625 22.5C43.8438 22.5 44.1406 22.4688 44.4531 22.4062C44.5469 22.4062 44.6406 22.3906 44.7344 22.3594C44.8281 22.2969 44.9062 22.2656 44.9688 22.2656C45.4375 22.4219 45.6719 22.6562 45.6719 22.9688L45.625 23.3438ZM39.4844 23.6719C38.6406 24.0781 37.875 24.5625 37.1875 25.125C36.5 25.6562 35.8438 26.2344 35.2188 26.8594C35.0625 27.0156 34.8906 27.1719 34.7031 27.3281C34.5469 27.4531 34.4062 27.5938 34.2812 27.75C34.1562 27.9062 34.0312 28.0938 33.9062 28.3125C33.8125 28.5312 33.7188 28.7344 33.625 28.9219C33.5625 29.0469 33.5 29.1562 33.4375 29.25C33.375 29.3125 33.3125 29.3906 33.25 29.4844C33.1875 29.6406 33.1562 29.7969 33.1562 29.9531C33.1875 30.1094 33.2031 30.2812 33.2031 30.4688C33.2031 30.625 33.2031 30.7812 33.2031 30.9375C33.2031 31.0938 33.2188 31.25 33.25 31.4062C33.3438 31.75 33.3906 32.0938 33.3906 32.4375C33.3906 32.6875 33.4062 33 33.4375 33.375C33.5 33.7188 33.625 33.9531 33.8125 34.0781C34 34.2031 34.1875 34.2344 34.375 34.1719C34.5938 34.1094 34.7812 34.0625 34.9375 34.0312C36.0312 33.1875 37.0625 32.3125 38.0312 31.4062C39 30.4688 39.8594 29.4219 40.6094 28.2656C40.5469 27.4531 40.5312 26.6719 40.5625 25.9219C40.625 25.1406 40.5625 24.4219 40.375 23.7656C40.25 23.7031 40.0938 23.6875 39.9062 23.7188C39.75 23.7188 39.6094 23.7031 39.4844 23.6719ZM63.7188 26.3906C63.8438 27.5469 63.8438 28.5781 63.7188 29.4844C63.5938 30.3594 63.3438 31.25 62.9688 32.1562C62.5 32.875 61.9844 33.5 61.4219 34.0312C61.2344 34.2188 61.0625 34.4219 60.9062 34.6406C60.75 34.8594 60.5625 35.0469 60.3438 35.2031C60.125 35.3594 59.8906 35.5 59.6406 35.625C59.3906 35.7188 59.1875 35.875 59.0312 36.0938C58.9062 36.125 58.7812 36.1562 58.6562 36.1875C58.5625 36.25 58.4531 36.3125 58.3281 36.375C58.0156 36.4375 57.7812 36.5 57.625 36.5625C57.5 36.6562 57.3594 36.7344 57.2031 36.7969C57.0469 36.8594 56.9062 36.875 56.7812 36.8438C56.6562 36.8125 56.5156 36.8125 56.3594 36.8438C56.2031 36.875 56.0625 36.9375 55.9375 37.0312C55.8438 37.125 55.7188 37.2031 55.5625 37.2656C55.25 37.3594 54.9688 37.3438 54.7188 37.2188C54.4688 37.0938 54.25 36.9219 54.0625 36.7031C53.4688 36.4844 53.0625 36.2188 52.8438 35.9062C52.6562 35.5938 52.4531 35.2656 52.2344 34.9219C51.9219 34.6094 51.7188 34.2969 51.625 33.9844C51.5625 33.6406 51.5 33.2656 51.4375 32.8594C51.2812 31.8906 51.1562 30.9219 51.0625 29.9531C51.0312 29.6719 51.0312 29.375 51.0625 29.0625C51.0938 28.75 51.0938 28.4375 51.0625 28.125C51.0312 27.6875 51 27.2031 50.9688 26.6719C50.9688 26.1406 51.0156 25.6875 51.1094 25.3125C51.1719 25.0312 51.25 24.7656 51.3438 24.5156C51.4375 24.2656 51.5156 24.0156 51.5781 23.7656C51.7031 23.4219 51.7969 23.1094 51.8594 22.8281C51.9219 22.5156 52.0156 22.2188 52.1406 21.9375C52.2031 21.7812 52.2656 21.6406 52.3281 21.5156C52.3906 21.3906 52.4531 21.2656 52.5156 21.1406C52.5781 20.9844 52.625 20.8438 52.6562 20.7188C52.7188 20.5625 52.7812 20.4062 52.8438 20.25C52.9062 20 53 19.75 53.125 19.5C53.2812 19.25 53.3906 18.9844 53.4531 18.7031C53.5156 18.4844 53.5625 18.2969 53.5938 18.1406C53.6562 17.9844 53.7812 17.8281 53.9688 17.6719C54.0938 17.3594 54.2031 17.0469 54.2969 16.7344C54.4219 16.4219 54.5625 16.1094 54.7188 15.7969C54.875 15.4844 55 15.1719 55.0938 14.8594C55.2188 14.5469 55.3594 14.2344 55.5156 13.9219C55.7969 13.5469 55.9531 13.3125 55.9844 13.2188C56.0469 13.0938 56.1094 12.9531 56.1719 12.7969C56.3594 12.5469 56.4844 12.3594 56.5469 12.2344C56.9219 11.6094 57.2969 10.9844 57.6719 10.3594C58.0469 9.70312 58.4531 9.07812 58.8906 8.48438C59.4531 7.70312 60 6.9375 60.5312 6.1875C61.0938 5.40625 61.7344 4.65625 62.4531 3.9375C62.5781 3.75 62.7344 3.54687 62.9219 3.32812C63.1094 3.10938 63.2969 2.875 63.4844 2.625C63.7031 2.40625 63.9062 2.1875 64.0938 1.96875C64.2812 1.75 64.4844 1.5625 64.7031 1.40625C65.1094 1.0625 65.3906 0.8125 65.5469 0.65625C65.7344 0.5 66 0.40625 66.3438 0.375C66.9688 0.34375 67.4844 0.515625 67.8906 0.890625C68.2969 1.23438 68.5938 1.67187 68.7812 2.20312C68.7188 2.76562 68.7344 3.29688 68.8281 3.79688C68.9219 4.29687 68.8906 4.78125 68.7344 5.25C68.4531 5.78125 68.1719 6.32812 67.8906 6.89062C67.6406 7.45312 67.3906 8.01562 67.1406 8.57812C66.8594 9.20312 66.5781 9.73438 66.2969 10.1719C66.0156 10.6094 65.75 11.0781 65.5 11.5781C65.3125 11.9219 65.0938 12.25 64.8438 12.5625C64.625 12.875 64.4375 13.2344 64.2812 13.6406C64.125 13.7969 64 13.9844 63.9062 14.2031C63.8125 14.3906 63.6562 14.5625 63.4375 14.7188C63.2812 15.0625 63.0938 15.3906 62.875 15.7031C62.6562 15.9844 62.4219 16.2344 62.1719 16.4531C61.7969 17.1719 61.4375 17.875 61.0938 18.5625C60.75 19.25 60.3594 19.9062 59.9219 20.5312C59.7656 20.5625 59.6406 20.6406 59.5469 20.7656C59.4531 20.8906 59.3594 21.0312 59.2656 21.1875C59.0156 21.5 58.7656 21.8125 58.5156 22.125C58.2656 22.4062 57.9844 22.6875 57.6719 22.9688C57.6094 23.1875 57.4219 23.4375 57.1094 23.7188C56.8281 24 56.6406 24.2188 56.5469 24.375C56.4844 24.4688 56.4219 24.5625 56.3594 24.6562C56.3281 24.75 56.2812 24.8438 56.2188 24.9375C56.1562 25.0625 56.0625 25.1719 55.9375 25.2656C55.8438 25.3594 55.7656 25.4531 55.7031 25.5469C55.6094 25.7969 55.5312 25.9531 55.4688 26.0156C55.4062 26.0469 55.3438 26.0938 55.2812 26.1562C55.0938 26.4375 54.9844 26.5781 54.9531 26.5781C54.9219 26.5781 54.8906 26.5938 54.8594 26.625C54.6719 26.9688 54.5469 27.1562 54.4844 27.1875C54.4219 27.2188 54.375 27.2656 54.3438 27.3281C54.375 27.7656 54.375 28.0625 54.3438 28.2188C54.3125 28.375 54.2812 28.5312 54.25 28.6875C54.3125 28.9688 54.3281 29.2969 54.2969 29.6719C54.2969 30.0156 54.3125 30.3594 54.3438 30.7031C54.375 31.0469 54.4062 31.375 54.4375 31.6875C54.5 31.9688 54.5781 32.2344 54.6719 32.4844C54.7656 32.7656 54.9375 33.0156 55.1875 33.2344C55.4375 33.4219 55.7344 33.5 56.0781 33.4688C56.2031 33.4375 56.375 33.375 56.5938 33.2812C56.8125 33.1875 56.9844 33.1094 57.1094 33.0469C57.2656 32.9219 57.4219 32.7656 57.5781 32.5781C57.7344 32.3906 57.8906 32.2188 58.0469 32.0625C58.4219 31.5938 58.7969 31.0625 59.1719 30.4688C59.5469 29.875 59.9062 29.3125 60.25 28.7812C60.4062 28.2812 60.5312 27.9375 60.625 27.75C60.7188 27.5625 60.7969 27.3438 60.8594 27.0938C60.9219 26.75 60.9375 26.4219 60.9062 26.1094C60.9062 25.7969 60.9688 25.5156 61.0938 25.2656C61.1562 25.0781 61.2969 24.8438 61.5156 24.5625C61.7656 24.25 61.9688 24.0156 62.125 23.8594C62.4062 23.6094 62.5781 23.5 62.6406 23.5312C62.7031 23.5312 62.7656 23.5156 62.8281 23.4844C63.3594 23.4219 63.7031 23.4375 63.8594 23.5312C64.0156 23.625 64.2656 23.6719 64.6094 23.6719C64.7969 23.6406 64.9844 23.6094 65.1719 23.5781C65.3906 23.5156 65.6094 23.5 65.8281 23.5312C66.0781 23.5625 66.3125 23.5938 66.5312 23.625C66.75 23.625 66.9844 23.5938 67.2344 23.5312C67.6406 23.4375 68.1406 23.3906 68.7344 23.3906C68.9219 23.3906 69.125 23.4062 69.3438 23.4375C69.5938 23.4375 69.8438 23.4062 70.0938 23.3438C70.375 23.3125 70.6562 23.25 70.9375 23.1562C71.2188 23.0312 71.4844 23 71.7344 23.0625C71.9531 23.0938 72.1094 23.2188 72.2031 23.4375C72.3281 23.6562 72.375 23.8906 72.3438 24.1406C72.3125 24.2969 72.2344 24.5 72.1094 24.75C71.9844 24.9688 71.8594 25.0938 71.7344 25.125C71.4844 25.0625 71.3438 25.0469 71.3125 25.0781C71.2812 25.1094 71.2344 25.125 71.1719 25.125C70.9531 25.0938 70.75 25.0469 70.5625 24.9844C70.4062 24.8906 70.2344 24.8125 70.0469 24.75C69.6094 24.6875 69.1719 24.7031 68.7344 24.7969C68.3281 24.8906 67.9219 25 67.5156 25.125C67.3281 25.1875 67.125 25.2656 66.9062 25.3594C66.7188 25.4219 66.5156 25.4844 66.2969 25.5469C66.2031 25.5781 66.0938 25.5938 65.9688 25.5938C65.875 25.5938 65.7812 25.625 65.6875 25.6875C65.4688 25.75 65.2656 25.7969 65.0781 25.8281C64.9219 25.8594 64.75 25.9062 64.5625 25.9688C64.3125 26.0312 64.1719 26.1094 64.1406 26.2031C64.1094 26.2656 63.9688 26.3281 63.7188 26.3906ZM61.2344 10.5C60.5156 11.5938 59.8125 12.7188 59.125 13.875C58.4688 15 57.8125 16.1875 57.1562 17.4375C57.0625 17.625 56.9688 17.8281 56.875 18.0469C56.8125 18.2344 56.7344 18.4531 56.6406 18.7031C56.4844 18.8906 56.3438 19.1562 56.2188 19.5C56.125 19.8125 56.0312 20.1094 55.9375 20.3906C55.7812 20.7969 55.625 21.2031 55.4688 21.6094C55.3125 21.9844 55.2656 22.3438 55.3281 22.6875C55.7031 22.4375 56.0156 22.0938 56.2656 21.6562C56.5156 21.1875 56.7656 20.7344 57.0156 20.2969C57.1719 20.1406 57.3125 19.9688 57.4375 19.7812C57.5625 19.5625 57.7031 19.3594 57.8594 19.1719C58.0156 18.9844 58.1562 18.7969 58.2812 18.6094C58.4062 18.4219 58.5469 18.25 58.7031 18.0938C59.1406 17.4688 59.5156 16.7969 59.8281 16.0781C60.1719 15.3594 60.5469 14.6406 60.9531 13.9219C61.1406 13.5781 61.3281 13.2344 61.5156 12.8906C61.7344 12.5469 61.9219 12.2031 62.0781 11.8594C62.2344 11.4531 62.3906 11.0625 62.5469 10.6875C62.7344 10.3125 62.8906 9.92188 63.0156 9.51562C63.1094 9.04688 63.2188 8.73438 63.3438 8.57812C63.5 8.39062 63.5938 8.17188 63.625 7.92188C63.1562 8.29688 62.7344 8.71875 62.3594 9.1875C61.9844 9.625 61.6094 10.0625 61.2344 10.5ZM78.8594 12.6562C78.9219 12.75 78.9531 12.8438 78.9531 12.9375C78.9531 13.0312 79 13.1094 79.0938 13.1719C79.0312 13.4531 78.9688 13.75 78.9062 14.0625C78.875 14.3438 78.8594 14.625 78.8594 14.9062C78.8594 15.0312 78.8906 15.1406 78.9531 15.2344C79.0469 15.3281 79.0938 15.4219 79.0938 15.5156C78.9375 15.8906 78.8125 16.1094 78.7188 16.1719C78.6562 16.2344 78.625 16.3125 78.625 16.4062C78.4688 16.4688 78.3438 16.5625 78.25 16.6875C78.1875 16.8125 78.0625 16.875 77.875 16.875C77.8125 16.9688 77.7344 17.0469 77.6406 17.1094C77.5781 17.1406 77.5312 17.2188 77.5 17.3438C77 17.5625 76.4375 17.5469 75.8125 17.2969C75.6562 17.0156 75.4375 16.8125 75.1562 16.6875C74.75 16.0938 74.7344 15.3906 75.1094 14.5781C75.1719 14.4219 75.2344 14.2656 75.2969 14.1094C75.3906 13.9219 75.4688 13.7969 75.5312 13.7344C75.875 13.4844 76.125 13.3281 76.2812 13.2656C76.4062 13.2031 76.5312 13.125 76.6562 13.0312C76.8125 12.9375 76.9844 12.8594 77.1719 12.7969C77.2344 12.7656 77.3125 12.75 77.4062 12.75C77.5312 12.75 77.6562 12.7188 77.7812 12.6562C77.9062 12.625 78.0156 12.5938 78.1094 12.5625C78.2031 12.5312 78.2969 12.5156 78.3906 12.5156L78.8594 12.6562ZM71.5938 33.375C71.875 33.25 72.2188 33.2031 72.625 33.2344C73.0312 33.2656 73.3594 33.2031 73.6094 33.0469C73.7344 32.9531 73.8438 32.8594 73.9375 32.7656C74.0312 32.6719 74.1406 32.6406 74.2656 32.6719C74.7656 32.4844 75.1875 32.2969 75.5312 32.1094C75.875 31.9219 76.25 31.7812 76.6562 31.6875C76.75 31.6562 76.8594 31.5938 76.9844 31.5C77.1406 31.4062 77.25 31.3281 77.3125 31.2656C77.8125 31.1094 78.1719 30.9531 78.3906 30.7969C78.6094 30.6406 78.8125 30.4844 79 30.3281C79.2188 30.1719 79.4219 30.0156 79.6094 29.8594C79.8281 29.6719 80.0938 29.4531 80.4062 29.2031C80.8438 28.9531 81.2031 28.7344 81.4844 28.5469C81.7969 28.3594 82.125 28.125 82.4688 27.8438C82.5312 27.6875 82.6094 27.5781 82.7031 27.5156C82.8281 27.4219 82.9219 27.3125 82.9844 27.1875C83.5469 27.1875 83.8594 27.4062 83.9219 27.8438C83.7656 28.1875 83.5469 28.4688 83.2656 28.6875C83.0156 28.9062 82.7812 29.1562 82.5625 29.4375C82.3125 29.5938 82.1094 29.7344 81.9531 29.8594C81.7969 29.9844 81.6406 30.1719 81.4844 30.4219C81.4531 30.4219 81.3594 30.5 81.2031 30.6562C81.0469 30.7812 80.9531 30.8438 80.9219 30.8438C80.7344 31.0625 80.5938 31.2031 80.5 31.2656C80.4375 31.3281 80.375 31.375 80.3125 31.4062C80.2812 31.4062 80.2188 31.4375 80.125 31.5C80.0625 31.5625 79.9219 31.6875 79.7031 31.875C79.4844 32.2188 79.2031 32.5 78.8594 32.7188C78.2031 33.3438 77.4844 33.8906 76.7031 34.3594C75.9531 34.7969 75.2656 35.2344 74.6406 35.6719C74.5156 35.7344 74.4062 35.8281 74.3125 35.9531C74.2188 36.0469 74.1094 36.1406 73.9844 36.2344C73.8281 36.3594 73.5781 36.4844 73.2344 36.6094C72.9219 36.7344 72.6406 36.8438 72.3906 36.9375C72.2031 37.0625 72.0312 37.1562 71.875 37.2188C71.1875 37.25 70.6562 37.1406 70.2812 36.8906C69.875 36.6719 69.5625 36.5 69.3438 36.375C69.125 36.25 68.9375 36.0469 68.7812 35.7656C68.4375 35.6094 68.2188 35.3281 68.125 34.9219C68.0625 34.4844 67.9844 34.0625 67.8906 33.6562C67.8594 33.5 67.8281 33.3281 67.7969 33.1406C67.7656 32.9219 67.7656 32.7031 67.7969 32.4844C67.8594 32.1406 67.9062 31.7812 67.9375 31.4062C67.9688 31 68.0469 30.6562 68.1719 30.375C68.3281 30.0312 68.4062 29.6875 68.4062 29.3438C68.4375 29 68.5312 28.6562 68.6875 28.3125C68.875 28 68.9531 27.8281 68.9219 27.7969C68.9219 27.7656 68.9375 27.7188 68.9688 27.6562C69.0312 27.5625 69.0938 27.4688 69.1562 27.375C69.25 27.2812 69.3281 27.1719 69.3906 27.0469L69.6719 26.3438C69.7969 26.125 69.9375 25.9062 70.0938 25.6875C70.25 25.4688 70.375 25.2031 70.4688 24.8906C70.5312 24.7031 70.6094 24.5312 70.7031 24.375C70.8281 24.2188 70.9531 24.0469 71.0781 23.8594C71.1719 23.6719 71.25 23.4844 71.3125 23.2969C71.375 23.0781 71.4531 22.8594 71.5469 22.6406C71.6406 22.3906 71.75 22.1406 71.875 21.8906C72.0312 21.6406 72.1875 21.3906 72.3438 21.1406C72.4688 20.8906 72.5781 20.7031 72.6719 20.5781C72.7656 20.4531 72.9531 20.375 73.2344 20.3438C73.3594 20.3125 73.5 20.3281 73.6562 20.3906C73.8125 20.4219 73.9688 20.4062 74.125 20.3438C74.5312 20.1562 74.8125 20.0625 74.9688 20.0625C75.125 20.0625 75.2344 20.0156 75.2969 19.9219C75.6406 19.9531 75.8906 20.0625 76.0469 20.25C76.2031 20.4375 76.3906 20.625 76.6094 20.8125C76.4219 21.7188 76.2031 22.4219 75.9531 22.9219C75.7344 23.3906 75.4844 23.8906 75.2031 24.4219C75.0469 24.6719 74.8906 24.9531 74.7344 25.2656C74.5781 25.5781 74.4375 25.8594 74.3125 26.1094C74.1562 26.4531 73.9844 26.7656 73.7969 27.0469C73.6406 27.2969 73.5 27.5938 73.375 27.9375C73.3125 28.0938 73.2344 28.25 73.1406 28.4062C73.0781 28.5312 73.0156 28.6719 72.9531 28.8281C72.8906 29.0469 72.7969 29.25 72.6719 29.4375C72.5781 29.5938 72.4844 29.75 72.3906 29.9062C72.2969 30.0938 72.2031 30.2812 72.1094 30.4688C72.0156 30.6562 71.9375 30.8594 71.875 31.0781C71.7188 31.4531 71.625 31.6875 71.5938 31.7812C71.5625 31.8438 71.5312 31.9062 71.5 31.9688C71.4375 32.3125 71.3438 32.5938 71.2188 32.8125C71.0938 33.0312 71.1406 33.1875 71.3594 33.2812L71.5938 33.375ZM94.8438 10.125C95.25 10.1875 95.5938 10.2344 95.875 10.2656C96.1562 10.2969 96.4062 10.3281 96.625 10.3594C96.875 10.3594 97.125 10.3594 97.375 10.3594C97.625 10.3281 97.9375 10.2812 98.3125 10.2188C99 10.125 99.6094 10.0469 100.141 9.98438C100.703 9.89062 101.312 9.8125 101.969 9.75C102.156 9.71875 102.344 9.71875 102.531 9.75C102.75 9.78125 102.953 9.79688 103.141 9.79688C103.547 9.79688 103.938 9.78125 104.312 9.75C104.719 9.71875 105.094 9.6875 105.438 9.65625C105.562 9.625 105.672 9.59375 105.766 9.5625C105.859 9.53125 105.953 9.53125 106.047 9.5625C106.328 9.5625 106.609 9.5625 106.891 9.5625C107.172 9.53125 107.422 9.625 107.641 9.84375C107.734 10.1562 107.766 10.3281 107.734 10.3594C107.703 10.3906 107.672 10.4375 107.641 10.5C107.609 10.9062 107.547 11.1094 107.453 11.1094C107.391 11.1094 107.359 11.1406 107.359 11.2031C107.109 11.2656 106.891 11.3281 106.703 11.3906C106.547 11.4219 106.422 11.5156 106.328 11.6719C105.797 11.7969 105.297 11.8281 104.828 11.7656C104.391 11.6719 103.938 11.7344 103.469 11.9531C103.25 12.0469 103.016 12.1719 102.766 12.3281C102.547 12.4531 102.266 12.4531 101.922 12.3281C101.609 12.3281 101.25 12.3438 100.844 12.375C100.438 12.4062 100.047 12.4375 99.6719 12.4688C98.9531 12.5312 98.3281 12.5938 97.7969 12.6562C97.2969 12.6875 96.8125 12.7188 96.3438 12.75C95.875 12.75 95.3906 12.7656 94.8906 12.7969C94.4219 12.8281 93.8438 12.8438 93.1562 12.8438C92.9062 13.0625 92.7344 13.3281 92.6406 13.6406C92.5781 13.9531 92.4219 14.2031 92.1719 14.3906C91.9219 14.9844 91.7188 15.3906 91.5625 15.6094C91.4062 15.7969 91.2969 16.0312 91.2344 16.3125C90.7969 16.875 90.3906 17.4688 90.0156 18.0938C89.6719 18.6875 89.2656 19.25 88.7969 19.7812C88.7344 20.125 88.6094 20.4375 88.4219 20.7188C88.2656 20.9688 88.1562 21.3125 88.0938 21.75C87.75 22.2188 87.5 22.7344 87.3438 23.2969C87.1875 23.8594 86.9844 24.4531 86.7344 25.0781C86.6719 25.3281 86.5938 25.5781 86.5 25.8281C86.4375 26.0469 86.3594 26.2812 86.2656 26.5312C86.1406 26.8438 85.9844 27.1406 85.7969 27.4219C85.6406 27.6719 85.4844 27.9531 85.3281 28.2656C85.2656 28.3281 85.2344 28.4219 85.2344 28.5469C85.2344 28.6406 85.2188 28.7188 85.1875 28.7812C85.0938 29 85 29.2031 84.9062 29.3906C84.8125 29.5469 84.7344 29.7031 84.6719 29.8594C84.6094 30.0156 84.5625 30.1875 84.5312 30.375C84.5312 30.5312 84.5 30.6875 84.4375 30.8438C84.4062 30.9375 84.375 31.0312 84.3438 31.125C84.3125 31.1875 84.2812 31.2656 84.25 31.3594C84.1562 31.7969 84.1562 32.0938 84.25 32.25C84.3438 32.4062 84.4219 32.5625 84.4844 32.7188C84.5469 32.9062 84.6094 33.0781 84.6719 33.2344C84.7344 33.3594 84.7812 33.5 84.8125 33.6562C84.9688 33.7188 85.1094 33.7812 85.2344 33.8438C85.3906 33.9062 85.5469 33.9375 85.7031 33.9375C85.8906 33.9688 86.0938 33.8906 86.3125 33.7031C86.5312 33.4844 86.7188 33.3594 86.875 33.3281C87.0938 33.2656 87.2969 33.2344 87.4844 33.2344C87.7031 33.2344 87.8906 33.1875 88.0469 33.0938C88.2344 32.9375 88.3906 32.7812 88.5156 32.625C88.6406 32.4688 88.8125 32.3594 89.0312 32.2969C89.5312 32.1719 89.7969 32.0781 89.8281 32.0156C89.8594 31.9219 89.9688 31.7969 90.1562 31.6406C90.375 31.4844 90.5625 31.3438 90.7188 31.2188C90.9062 31.0625 91.125 30.9062 91.375 30.75C91.6875 30.5938 91.8594 30.5 91.8906 30.4688C91.9531 30.4375 92.0938 30.3281 92.3125 30.1406C92.625 29.9844 92.8906 29.8125 93.1094 29.625C93.3281 29.4375 93.5781 29.2656 93.8594 29.1094C94.1719 28.9844 94.3594 28.9062 94.4219 28.875C94.4844 28.8125 94.5156 28.7656 94.5156 28.7344C94.5469 28.7031 94.5781 28.6562 94.6094 28.5938C94.6719 28.5312 94.8281 28.4219 95.0781 28.2656C95.2031 28.0156 95.3438 27.8125 95.5 27.6562C95.6562 27.5 95.8438 27.2969 96.0625 27.0469C96.25 26.8281 96.4375 26.6406 96.625 26.4844C96.8438 26.3281 97.0312 26.1719 97.1875 26.0156C97.2812 25.9531 97.3594 25.8906 97.4219 25.8281C97.4844 25.7344 97.5938 25.6719 97.75 25.6406C97.9375 25.4844 98.0781 25.3594 98.1719 25.2656C98.2969 25.1406 98.4844 24.9688 98.7344 24.75C98.7969 24.6875 98.875 24.6094 98.9688 24.5156C99.0625 24.4219 99.1406 24.3594 99.2031 24.3281C99.3281 24.3281 99.4219 24.375 99.4844 24.4688C99.5781 24.5625 99.6875 24.6094 99.8125 24.6094C99.7812 25.0156 99.7656 25.2812 99.7656 25.4062C99.7656 25.5 99.7344 25.6094 99.6719 25.7344C99.4844 26.0156 99.2656 26.1719 99.0156 26.2031C98.7969 26.2344 98.625 26.4062 98.5 26.7188C98.4062 26.6562 98.2812 26.6406 98.125 26.6719C98 26.7031 97.9062 26.75 97.8438 26.8125C97.9062 26.9375 97.9375 27.0469 97.9375 27.1406C97.9375 27.2344 97.9531 27.3438 97.9844 27.4688C97.4219 28.0312 97.0469 28.4844 96.8594 28.8281C96.4844 29.2344 96.2812 29.4688 96.25 29.5312C96.2188 29.5625 96.2031 29.5781 96.2031 29.5781C96.2031 29.5781 96.1875 29.5938 96.1562 29.625C96.125 29.6562 96.0156 29.7656 95.8281 29.9531C95.3906 30.2969 95.0625 30.625 94.8438 30.9375C94.625 31.25 94.2969 31.5312 93.8594 31.7812C93.5156 32.0312 93.2812 32.2188 93.1562 32.3438C93.0312 32.4688 92.8438 32.6406 92.5938 32.8594C92.4688 32.9844 92.3438 33.125 92.2188 33.2812C92.125 33.4062 92 33.5312 91.8438 33.6562C91.625 33.8125 91.4062 33.9531 91.1875 34.0781C91 34.2031 90.8281 34.3594 90.6719 34.5469C90.2031 34.7656 89.8594 35.0156 89.6406 35.2969C89.4531 35.5781 89.1562 35.8438 88.75 36.0938C88.4688 36.2812 88.0781 36.5156 87.5781 36.7969C87.1094 37.0781 86.7031 37.2812 86.3594 37.4062C86.2656 37.4375 86.1719 37.4688 86.0781 37.5C86.0156 37.5312 85.9375 37.5625 85.8438 37.5938C85.5938 37.4375 85.3438 37.2812 85.0938 37.125C84.875 36.9688 84.6875 36.75 84.5312 36.4688C84.25 36.25 84.0156 36.0938 83.8281 36C83.6719 35.9062 83.5156 35.7812 83.3594 35.625C83.0469 35.0938 82.6875 34.5625 82.2812 34.0312C81.9062 33.5 81.6094 32.9062 81.3906 32.25C81.3281 32.125 81.2812 32 81.25 31.875C81.25 31.7188 81.2344 31.5625 81.2031 31.4062C81.1406 31.1562 81.0781 30.9375 81.0156 30.75C80.9531 30.5625 80.9375 30.3281 80.9688 30.0469C80.9688 29.8594 81 29.6562 81.0625 29.4375C81.125 29.2188 81.1875 28.9844 81.25 28.7344C81.375 28.3281 81.5156 27.9375 81.6719 27.5625C81.8594 27.1875 82 26.7812 82.0938 26.3438C82.1875 26 82.2812 25.6875 82.375 25.4062C82.4688 25.125 82.5781 24.8125 82.7031 24.4688C82.7656 24.3125 82.7969 24.1719 82.7969 24.0469C82.8281 23.8906 82.9219 23.7812 83.0781 23.7188C83.2031 23.0938 83.4062 22.5 83.6875 21.9375C83.9688 21.3438 84.25 20.7812 84.5312 20.25C84.875 19.5938 85.1875 18.9219 85.4688 18.2344C85.7812 17.5469 86.1094 16.875 86.4531 16.2188C86.4844 15.8438 86.6094 15.5312 86.8281 15.2812C86.8594 14.9375 86.9844 14.6094 87.2031 14.2969C87.4219 13.9531 87.5781 13.6094 87.6719 13.2656C87.3281 13.1719 86.9375 13.1719 86.5 13.2656C86.0938 13.3281 85.7344 13.3906 85.4219 13.4531C84.8594 13.4844 84.2656 13.4844 83.6406 13.4531C83.4219 13.4219 83.2031 13.3906 82.9844 13.3594C82.7969 13.2969 82.6094 13.2656 82.4219 13.2656C82.1406 13.2969 81.9219 13.2812 81.7656 13.2188C81.6406 13.125 81.5 13.1094 81.3438 13.1719C80.9375 12.8281 80.6406 12.5938 80.4531 12.4688C80.2656 12.3438 80.0938 12.2344 79.9375 12.1406C79.75 12.0156 79.5938 11.8906 79.4688 11.7656C79.3125 11.6094 79.1875 11.3906 79.0938 11.1094C79.0938 11.0156 79.1406 10.9375 79.2344 10.875C79.3281 10.8125 79.4062 10.75 79.4688 10.6875C79.7188 10.625 80 10.6094 80.3125 10.6406C80.625 10.6406 80.875 10.5781 81.0625 10.4531C81.5625 10.5156 82.0156 10.4844 82.4219 10.3594C82.8594 10.2344 83.3125 10.1875 83.7812 10.2188C83.875 10.2188 83.9688 10.2344 84.0625 10.2656C84.1562 10.2969 84.25 10.3125 84.3438 10.3125C84.5 10.3438 84.625 10.3438 84.7188 10.3125C84.8438 10.2812 84.9844 10.25 85.1406 10.2188C85.3281 10.1875 85.5312 10.1875 85.75 10.2188C85.9688 10.25 86.1875 10.25 86.4062 10.2188C86.8125 10.1875 87.2969 10.2344 87.8594 10.3594C88.4531 10.4531 88.9688 10.4219 89.4062 10.2656C89.5625 9.82812 89.7344 9.39062 89.9219 8.95312C90.1406 8.48438 90.3125 8.03125 90.4375 7.59375C90.5625 7.40625 90.6875 7.20312 90.8125 6.98438C90.9375 6.73437 91.0312 6.5 91.0938 6.28125C91.2812 5.96875 91.4219 5.71875 91.5156 5.53125C91.6406 5.34375 91.7812 5.15625 91.9375 4.96875C92.1562 4.53125 92.3125 4.10937 92.4062 3.70312C92.5312 3.26562 92.6875 2.79687 92.875 2.29688C93.2812 1.85937 93.6875 1.32813 94.0938 0.703125C94.3125 0.734375 94.4844 0.671875 94.6094 0.515625C94.7656 0.359375 94.9844 0.375 95.2656 0.5625C95.2656 0.65625 95.2969 0.75 95.3594 0.84375C95.4531 0.90625 95.4688 1.01562 95.4062 1.17188C95.5625 1.32813 95.6875 1.46875 95.7812 1.59375C95.875 1.71875 95.9531 1.85937 96.0156 2.01562C96.0781 2.26563 96.0469 2.5625 95.9219 2.90625C95.8281 3.21875 95.8594 3.51562 96.0156 3.79688C96.0781 3.95313 96.0938 4.10937 96.0625 4.26562C96.0312 4.39062 96.0469 4.51563 96.1094 4.64062C96.1719 4.79688 96.25 4.95312 96.3438 5.10938C96.4688 5.26563 96.5312 5.46875 96.5312 5.71875C96.5312 5.8125 96.5 5.9375 96.4375 6.09375C96.4062 6.21875 96.3594 6.35937 96.2969 6.51562C96.1719 6.98438 96.0781 7.3125 96.0156 7.5C95.9531 7.6875 95.8906 7.89062 95.8281 8.10938C95.6094 8.35938 95.5 8.53125 95.5 8.625C95.5 8.6875 95.4844 8.75 95.4531 8.8125C95.3594 9 95.25 9.23438 95.125 9.51562C95.0312 9.76562 94.9375 9.96875 94.8438 10.125ZM133.562 5.10938C133.719 5.92188 133.906 6.65625 134.125 7.3125C134.344 7.96875 134.484 8.6875 134.547 9.46875C134.547 9.65625 134.531 9.84375 134.5 10.0312C134.5 10.2188 134.516 10.4062 134.547 10.5938V11.1562C134.547 11.4062 134.516 11.6406 134.453 11.8594C134.422 12.0781 134.406 12.3125 134.406 12.5625C134.375 13.125 134.281 13.6719 134.125 14.2031C134.094 14.5469 134.062 14.7188 134.031 14.7188C134 14.6875 133.984 14.7031 133.984 14.7656C133.922 15.1094 133.875 15.4375 133.844 15.75C133.812 16.0625 133.766 16.3906 133.703 16.7344C134.266 16.7969 134.906 16.875 135.625 16.9688C136.375 17.0312 137.078 17.0312 137.734 16.9688C137.891 16.9375 138.031 16.8906 138.156 16.8281C138.312 16.7656 138.469 16.7031 138.625 16.6406C139.156 16.5781 139.578 16.4531 139.891 16.2656C140.203 16.0781 140.578 15.9219 141.016 15.7969C140.891 16.1406 140.734 16.3438 140.547 16.4062C140.453 16.7188 140.359 16.9375 140.266 17.0625C140.203 17.1562 140.125 17.2344 140.031 17.2969C139.875 17.4219 139.734 17.5312 139.609 17.625C139.484 17.6875 139.344 17.7812 139.188 17.9062C138.688 18.1875 138.281 18.3438 137.969 18.375C137.688 18.375 137.422 18.4219 137.172 18.5156C136.953 18.4844 136.688 18.4531 136.375 18.4219C136.094 18.3906 135.844 18.3906 135.625 18.4219C135.469 18.3281 135.297 18.2812 135.109 18.2812C134.922 18.2812 134.734 18.3125 134.547 18.375C134.172 18.5 133.922 18.5938 133.797 18.6562C133.672 18.6875 133.547 18.7344 133.422 18.7969C133.359 18.9844 133.312 19.125 133.281 19.2188C133.281 19.3125 133.266 19.3906 133.234 19.4531C133.203 19.7969 133.172 20.1406 133.141 20.4844C133.141 20.7969 133.094 21.125 133 21.4688C132.875 21.75 132.812 21.9375 132.812 22.0312C132.812 22.0938 132.781 22.1875 132.719 22.3125C132.625 22.4688 132.547 22.6562 132.484 22.875C132.422 23.0938 132.359 23.3125 132.297 23.5312C132.141 23.6875 132.047 23.875 132.016 24.0938C131.984 24.3125 131.953 24.5469 131.922 24.7969C131.891 25.0469 131.812 25.2969 131.688 25.5469C131.562 25.7656 131.438 25.9844 131.312 26.2031C131.25 26.3594 131.188 26.5156 131.125 26.6719C131.062 26.7969 130.984 26.9375 130.891 27.0938C130.516 27.5625 130.156 28.0625 129.812 28.5938C129.656 28.9375 129.484 29.25 129.297 29.5312C129.141 29.7812 128.984 30.0625 128.828 30.375C128.578 30.8125 128.266 31.2031 127.891 31.5469C127.516 31.8594 127.141 32.1875 126.766 32.5312C126.578 32.6875 126.391 32.8594 126.203 33.0469C126.016 33.2344 125.844 33.4062 125.688 33.5625C125.531 33.7188 125.359 33.8906 125.172 34.0781C125.016 34.2344 124.859 34.3906 124.703 34.5469C124.484 34.7031 124.25 34.875 124 35.0625C123.781 35.2188 123.547 35.375 123.297 35.5312C122.797 35.8125 122.297 36.0781 121.797 36.3281C121.328 36.5781 120.828 36.8594 120.297 37.1719C120.047 37.3281 119.812 37.4688 119.594 37.5938C119.375 37.75 119.141 37.875 118.891 37.9688C118.703 38.0312 118.5 38.0625 118.281 38.0625C118.094 38.0938 117.906 38.125 117.719 38.1562C117.469 38.2188 117.234 38.2656 117.016 38.2969C116.797 38.3594 116.547 38.3906 116.266 38.3906C115.922 38.3594 115.531 38.2812 115.094 38.1562C114.688 38.0625 114.375 37.9375 114.156 37.7812C113.75 37.4062 113.5 37.1406 113.406 36.9844C113.344 36.8281 113.234 36.6719 113.078 36.5156C113.047 36.3906 113 36.2969 112.938 36.2344C112.906 36.2031 112.891 36.125 112.891 36C112.672 35.6875 112.5 35.375 112.375 35.0625C112.094 34.4688 111.891 33.9531 111.766 33.5156C111.672 33.0469 111.656 32.5625 111.719 32.0625C111.656 31.5625 111.625 31 111.625 30.375C111.625 29.7188 111.625 29.0938 111.625 28.5C111.625 28.2812 111.609 28.0781 111.578 27.8906C111.578 27.6719 111.609 27.4844 111.672 27.3281C111.641 27.0781 111.609 26.8438 111.578 26.625C111.578 26.375 111.609 26.1562 111.672 25.9688C111.703 25.6562 111.719 25.4219 111.719 25.2656C111.75 25.1094 111.797 24.9531 111.859 24.7969C112.016 24.6406 112.078 24.4844 112.047 24.3281C112.047 24.1719 112.078 24.0156 112.141 23.8594C112.266 23.0156 112.469 22.2656 112.75 21.6094C112.844 21.3594 112.938 21.125 113.031 20.9062C113.125 20.6562 113.203 20.4062 113.266 20.1562C113.453 19.625 113.656 19.1406 113.875 18.7031C114.125 18.2656 114.359 17.7969 114.578 17.2969C115.016 16.3906 115.469 15.5625 115.938 14.8125C116.438 14.0312 116.938 13.2344 117.438 12.4219C117.594 12.3281 117.703 12.2031 117.766 12.0469C117.828 11.8594 117.922 11.7188 118.047 11.625C118.297 11.0938 118.594 10.6406 118.938 10.2656C119.281 9.89062 119.625 9.51562 119.969 9.14062C120.125 9.01562 120.266 8.89062 120.391 8.76562C120.516 8.60938 120.656 8.45312 120.812 8.29688C120.906 8.20312 121 8.125 121.094 8.0625C121.219 7.96875 121.312 7.85938 121.375 7.73438C121.5 7.67188 121.609 7.59375 121.703 7.5C121.828 7.40625 121.938 7.3125 122.031 7.21875C122.156 7.125 122.281 7.03125 122.406 6.9375C122.531 6.84375 122.656 6.75 122.781 6.65625C123.031 6.46875 123.25 6.28125 123.438 6.09375C123.656 5.875 123.891 5.6875 124.141 5.53125C124.391 5.5 124.547 5.48438 124.609 5.48438C124.672 5.48438 124.703 5.4375 124.703 5.34375C125.078 5.03125 125.312 4.8125 125.406 4.6875C125.531 4.53125 125.641 4.375 125.734 4.21875C125.984 4.0625 126.203 3.89062 126.391 3.70312C126.578 3.48438 126.797 3.29688 127.047 3.14062C127.234 2.92188 127.359 2.78125 127.422 2.71875C127.516 2.65625 127.609 2.59375 127.703 2.53125C127.766 2.4375 127.828 2.375 127.891 2.34375C127.984 2.28125 128.047 2.21875 128.078 2.15625C128.234 2.09375 128.375 2.03125 128.5 1.96875C128.625 1.875 128.781 1.79688 128.969 1.73438C129.188 1.76562 129.359 1.76562 129.484 1.73438C129.641 1.70313 129.781 1.70313 129.906 1.73438C130.094 1.76562 130.234 1.84375 130.328 1.96875C130.453 2.0625 130.594 2.17188 130.75 2.29688C131.125 2.35938 131.406 2.5625 131.594 2.90625C131.812 3.21875 132.047 3.45312 132.297 3.60938C132.453 3.85938 132.625 4.10937 132.812 4.35938C133.031 4.57812 133.219 4.82812 133.375 5.10938H133.562ZM129.906 14.0625C130.062 14.2812 130.25 14.4844 130.469 14.6719C130.688 14.8281 130.906 14.9844 131.125 15.1406C131.125 14.3281 131.156 13.4531 131.219 12.5156C131.312 11.5469 131.328 10.6562 131.266 9.84375C131.172 9.5 131.062 9.17188 130.938 8.85938C130.844 8.54688 130.766 8.20312 130.703 7.82812C130.578 7.70312 130.484 7.57812 130.422 7.45312C130.391 7.32812 130.344 7.20312 130.281 7.07812C130.125 6.89062 130.047 6.78125 130.047 6.75C130.047 6.6875 130.016 6.625 129.953 6.5625C129.891 6.5 129.812 6.4375 129.719 6.375C129.656 6.3125 129.594 6.23438 129.531 6.14062C129.156 6.10938 128.844 6.1875 128.594 6.375C128.375 6.53125 128.156 6.6875 127.938 6.84375C127.875 7.28125 127.859 7.6875 127.891 8.0625C127.922 8.4375 127.969 8.79688 128.031 9.14062C128.125 9.73438 128.219 10.3281 128.312 10.9219C128.406 11.5156 128.562 12.0312 128.781 12.4688C128.812 12.6875 128.938 12.9531 129.156 13.2656C129.375 13.5469 129.625 13.8125 129.906 14.0625ZM123.625 9.98438C123.469 10.1406 123.312 10.2812 123.156 10.4062C123 10.5312 122.859 10.6875 122.734 10.875C122.547 11.0312 122.391 11.1875 122.266 11.3438C122.141 11.5 122 11.6562 121.844 11.8125C121.688 11.9688 121.547 12.125 121.422 12.2812C121.297 12.4062 121.172 12.5625 121.047 12.75C120.953 12.8125 120.875 12.8906 120.812 12.9844C120.75 13.0781 120.672 13.1719 120.578 13.2656C120.266 13.6719 120.047 13.9531 119.922 14.1094C119.797 14.2656 119.703 14.4219 119.641 14.5781C119.453 14.7031 119.297 14.875 119.172 15.0938C119.078 15.2812 118.984 15.4844 118.891 15.7031C118.703 15.9531 118.531 16.2188 118.375 16.5C118.219 16.7812 118.078 17.0625 117.953 17.3438C117.703 17.7812 117.547 18.0781 117.484 18.2344C117.453 18.3906 117.406 18.5469 117.344 18.7031C117.219 18.8906 117.109 19.1406 117.016 19.4531C116.484 20.5781 116.016 21.8594 115.609 23.2969C115.547 23.5781 115.453 23.8438 115.328 24.0938C115.234 24.3438 115.172 24.5938 115.141 24.8438C115.109 24.9688 115.094 25.0938 115.094 25.2188C115.125 25.3438 115.141 25.4688 115.141 25.5938C115.109 25.9062 115.078 26.2188 115.047 26.5312C115.016 26.8125 115 27.125 115 27.4688C115 28.0938 115 28.6719 115 29.2031C115 29.7344 115.031 30.2812 115.094 30.8438C115.094 31.25 115.125 31.5781 115.188 31.8281C115.25 31.9531 115.359 32.0781 115.516 32.2031C115.672 32.3281 115.812 32.4375 115.938 32.5312C116.188 32.7812 116.438 33.0469 116.688 33.3281C116.938 33.5781 117.281 33.625 117.719 33.4688C117.875 33.5625 118.047 33.5625 118.234 33.4688C118.422 33.375 118.609 33.3594 118.797 33.4219C118.953 33.3594 119.109 33.3281 119.266 33.3281C119.422 33.2969 119.578 33.25 119.734 33.1875C119.984 33.125 120.219 33.0625 120.438 33C120.688 32.9062 120.922 32.8281 121.141 32.7656C121.391 32.6719 121.641 32.5938 121.891 32.5312C122.141 32.4375 122.375 32.3281 122.594 32.2031C123.219 31.6719 123.672 31.25 123.953 30.9375C124.172 30.7188 124.391 30.5312 124.609 30.375C124.828 30.1875 125.031 30 125.219 29.8125C125.375 29.6562 125.531 29.5 125.688 29.3438C125.844 29.1562 125.984 28.9375 126.109 28.6875C126.203 28.5938 126.281 28.5 126.344 28.4062C126.438 28.2812 126.516 28.1562 126.578 28.0312C126.734 27.8438 126.844 27.6406 126.906 27.4219C127 27.2031 127.125 26.9844 127.281 26.7656C127.469 26.2344 127.688 25.7344 127.938 25.2656C128.188 24.7969 128.391 24.3125 128.547 23.8125C128.828 23.2188 129.062 22.7031 129.25 22.2656C129.469 21.7969 129.625 21.3281 129.719 20.8594C129.812 20.7656 129.859 20.6562 129.859 20.5312C129.891 20.375 129.938 20.25 130 20.1562C130.156 19.7188 130.281 19.2969 130.375 18.8906C130.5 18.4844 130.625 18.0312 130.75 17.5312C130.625 17.4688 130.516 17.4531 130.422 17.4844C130.328 17.4844 130.234 17.4531 130.141 17.3906C129.891 17.2969 129.656 17.1406 129.438 16.9219C129.25 16.6719 129.031 16.5312 128.781 16.5C128.656 16.4062 128.547 16.3281 128.453 16.2656C128.391 16.2031 128.297 16.1406 128.172 16.0781C127.672 15.5469 127.188 15 126.719 14.4375C126.281 13.8438 125.922 13.1875 125.641 12.4688C125.359 11.8438 125.141 11.2656 124.984 10.7344C124.828 10.1719 124.688 9.57812 124.562 8.95312C124.375 9.14062 124.203 9.3125 124.047 9.46875C123.922 9.625 123.781 9.79688 123.625 9.98438ZM150.203 23.3438C150.234 23.4375 150.203 23.625 150.109 23.9062C149.953 24.0938 149.859 24.2969 149.828 24.5156C149.766 24.6406 149.703 24.75 149.641 24.8438C149.609 24.9375 149.578 25.0625 149.547 25.2188C149.484 25.4062 149.453 25.625 149.453 25.875C149.484 26.125 149.484 26.3594 149.453 26.5781C149.391 26.9219 149.344 27.2656 149.312 27.6094C149.281 27.9219 149.25 28.25 149.219 28.5938C149.219 28.9375 149.188 29.3281 149.125 29.7656C149.062 30.2031 149 30.5938 148.938 30.9375C149.062 31.1562 149.141 31.3906 149.172 31.6406C149.203 31.8906 149.312 32.0938 149.5 32.25C150.125 32.1562 150.625 32.0156 151 31.8281C151.375 31.6094 151.734 31.3125 152.078 30.9375C152.359 30.8125 152.547 30.7031 152.641 30.6094C152.766 30.5156 152.953 30.3906 153.203 30.2344C153.266 30.1719 153.328 30.1094 153.391 30.0469C153.453 29.9844 153.516 29.9219 153.578 29.8594C153.922 29.6719 154.125 29.5469 154.188 29.4844C154.281 29.4219 154.391 29.3594 154.516 29.2969C155.047 28.9531 155.453 28.5938 155.734 28.2188C156.016 28 156.203 27.8125 156.297 27.6562C156.422 27.4688 156.672 27.2969 157.047 27.1406C157.266 26.8906 157.484 26.6875 157.703 26.5312C157.953 26.3438 158.188 26.125 158.406 25.875C158.562 25.875 158.688 25.9062 158.781 25.9688C158.875 26.0312 158.984 26.0938 159.109 26.1562C159.203 26.4062 159.219 26.6719 159.156 26.9531C159.094 27.2031 158.984 27.4375 158.828 27.6562C158.672 27.875 158.594 28 158.594 28.0312C158.594 28.0625 158.578 28.0938 158.547 28.125C158.453 28.25 158.328 28.375 158.172 28.5C158.047 28.5938 157.938 28.7031 157.844 28.8281C157.688 29.1094 157.562 29.25 157.469 29.25C157.375 29.25 157.297 29.2812 157.234 29.3438C156.953 29.5 156.75 29.625 156.625 29.7188C156.531 29.8125 156.359 29.9375 156.109 30.0938C155.766 30.2812 155.562 30.4062 155.5 30.4688C155.438 30.5312 155.375 30.5781 155.312 30.6094C154.906 31.0469 154.531 31.4062 154.188 31.6875C153.875 31.9375 153.531 32.2812 153.156 32.7188C153.031 32.8125 152.906 32.9062 152.781 33C152.656 33.0938 152.547 33.2188 152.453 33.375C152.172 33.5625 151.938 33.75 151.75 33.9375C151.594 34.125 151.406 34.3438 151.188 34.5938C151 34.6875 150.797 34.8281 150.578 35.0156C150.359 35.1719 150.125 35.3125 149.875 35.4375C149.75 35.5 149.609 35.5781 149.453 35.6719C149.328 35.7344 149.188 35.7656 149.031 35.7656C148.656 35.8281 148.312 35.7969 148 35.6719C147.688 35.5469 147.391 35.4531 147.109 35.3906C146.984 35.2031 146.828 35.0469 146.641 34.9219C146.359 34.5781 146.156 34.1719 146.031 33.7031C145.906 33.2344 145.781 32.7344 145.656 32.2031C145.406 32.3594 145.172 32.5625 144.953 32.8125C144.734 33.0625 144.453 33.2656 144.109 33.4219C143.484 34.0156 142.812 34.5938 142.094 35.1562C141.406 35.6875 140.703 36.25 139.984 36.8438C139.891 36.9375 139.797 37.0156 139.703 37.0781C139.609 37.1406 139.531 37.1562 139.469 37.125C139.312 37.3125 139.094 37.4219 138.812 37.4531C138.562 37.5156 138.281 37.5156 137.969 37.4531C137.656 37.2969 137.375 37.1875 137.125 37.125C136.875 37.0625 136.625 36.9688 136.375 36.8438C135.844 36.75 135.406 36.5156 135.062 36.1406C134.688 35.7656 134.375 35.3281 134.125 34.8281C134.031 34.5781 133.969 34.3438 133.938 34.125C133.875 33.9062 133.812 33.6562 133.75 33.375C133.719 33.125 133.672 32.9219 133.609 32.7656C133.547 32.5781 133.547 32.4062 133.609 32.25C133.547 32.1562 133.531 32.0625 133.562 31.9688C133.594 31.8438 133.609 31.7188 133.609 31.5938C133.578 31.1562 133.625 30.6875 133.75 30.1875C133.844 29.6875 133.984 29.2344 134.172 28.8281C134.234 28.7031 134.359 28.5469 134.547 28.3594C134.609 28.2656 134.656 28.1719 134.688 28.0781C134.719 27.9844 134.766 27.9062 134.828 27.8438C134.891 27.75 134.984 27.6562 135.109 27.5625C135.234 27.4688 135.344 27.375 135.438 27.2812C135.594 27.0625 135.766 26.875 135.953 26.7188C136.172 26.5312 136.375 26.3438 136.562 26.1562C136.656 26.0625 136.734 25.9531 136.797 25.8281C136.891 25.7031 137.016 25.6094 137.172 25.5469C137.297 25.3281 137.438 25.1562 137.594 25.0312C137.75 24.875 137.922 24.7188 138.109 24.5625C138.641 23.9062 139.297 23.3594 140.078 22.9219C140.859 22.4844 141.562 21.9844 142.188 21.4219C142.406 21.3281 142.594 21.2188 142.75 21.0938C142.906 20.9688 143.062 20.8438 143.219 20.7188C143.625 20.375 144.047 20.2656 144.484 20.3906C144.922 20.5156 145.328 20.625 145.703 20.7188C146.016 21 146.312 21.2812 146.594 21.5625C146.906 21.8438 147.172 22.1562 147.391 22.5C147.609 22.4688 147.859 22.4688 148.141 22.5C148.422 22.5 148.719 22.4688 149.031 22.4062C149.125 22.4062 149.219 22.3906 149.312 22.3594C149.406 22.2969 149.484 22.2656 149.547 22.2656C150.016 22.4219 150.25 22.6562 150.25 22.9688L150.203 23.3438ZM144.062 23.6719C143.219 24.0781 142.453 24.5625 141.766 25.125C141.078 25.6562 140.422 26.2344 139.797 26.8594C139.641 27.0156 139.469 27.1719 139.281 27.3281C139.125 27.4531 138.984 27.5938 138.859 27.75C138.734 27.9062 138.609 28.0938 138.484 28.3125C138.391 28.5312 138.297 28.7344 138.203 28.9219C138.141 29.0469 138.078 29.1562 138.016 29.25C137.953 29.3125 137.891 29.3906 137.828 29.4844C137.766 29.6406 137.734 29.7969 137.734 29.9531C137.766 30.1094 137.781 30.2812 137.781 30.4688C137.781 30.625 137.781 30.7812 137.781 30.9375C137.781 31.0938 137.797 31.25 137.828 31.4062C137.922 31.75 137.969 32.0938 137.969 32.4375C137.969 32.6875 137.984 33 138.016 33.375C138.078 33.7188 138.203 33.9531 138.391 34.0781C138.578 34.2031 138.766 34.2344 138.953 34.1719C139.172 34.1094 139.359 34.0625 139.516 34.0312C140.609 33.1875 141.641 32.3125 142.609 31.4062C143.578 30.4688 144.438 29.4219 145.188 28.2656C145.125 27.4531 145.109 26.6719 145.141 25.9219C145.203 25.1406 145.141 24.4219 144.953 23.7656C144.828 23.7031 144.672 23.6875 144.484 23.7188C144.328 23.7188 144.188 23.7031 144.062 23.6719ZM160.328 29.1094C160.391 29.2344 160.359 29.4062 160.234 29.625C160.141 29.8438 160.062 30.0312 160 30.1875C160.031 30.3125 160.062 30.4219 160.094 30.5156C160.125 30.5781 160.109 30.6719 160.047 30.7969C160.266 30.9531 160.406 31.1406 160.469 31.3594C160.531 31.5469 160.641 31.75 160.797 31.9688C160.953 32.1562 161.109 32.3125 161.266 32.4375C161.453 32.5625 161.625 32.7031 161.781 32.8594C161.938 32.7656 162.062 32.7188 162.156 32.7188C162.25 32.7188 162.375 32.6875 162.531 32.625C162.812 32.25 163.031 31.8125 163.188 31.3125C163.219 31.1875 163.25 31.0469 163.281 30.8906C163.312 30.7344 163.328 30.5938 163.328 30.4688C163.297 30.0312 163.172 29.6094 162.953 29.2031C162.734 28.7969 162.562 28.375 162.438 27.9375C162.312 27.6875 162.266 27.4062 162.297 27.0938C162.359 26.7812 162.359 26.5 162.297 26.25C162.266 26.0938 162.219 25.9688 162.156 25.875C162.094 25.7812 162.031 25.6719 161.969 25.5469C161.906 25.2969 161.875 25.0156 161.875 24.7031C161.906 24.3906 161.844 24.125 161.688 23.9062C161.562 24.0312 161.359 24.2656 161.078 24.6094C160.797 24.9531 160.5 25.3281 160.188 25.7344C159.875 26.1406 159.578 26.5156 159.297 26.8594C159.047 27.2031 158.859 27.4375 158.734 27.5625C158.578 27.7812 158.406 27.9844 158.219 28.1719C158.031 28.3281 157.859 28.5156 157.703 28.7344C157.578 28.8906 157.359 29.1562 157.047 29.5312C156.766 29.875 156.469 30.25 156.156 30.6562C155.844 31.0625 155.562 31.4531 155.312 31.8281C155.031 32.1719 154.844 32.4062 154.75 32.5312C154.688 32.625 154.531 32.8594 154.281 33.2344C154 33.6094 153.703 34.0156 153.391 34.4531C153.047 34.8906 152.75 35.2969 152.5 35.6719C152.219 36.0469 152.047 36.2969 151.984 36.4219C151.797 36.7344 151.562 37 151.281 37.2188C150.969 37.4688 150.609 37.5938 150.203 37.5938C150.172 37.5625 150.141 37.4688 150.109 37.3125C150.078 37.1875 150.062 37.0469 150.062 36.8906C150.031 36.7344 150 36.5781 149.969 36.4219C149.906 36.2969 149.859 36.2031 149.828 36.1406C149.922 35.9531 150 35.7656 150.062 35.5781C150.094 35.3906 150.219 35.2188 150.438 35.0625C150.5 34.8438 150.688 34.5 151 34.0312C151.312 33.5312 151.656 33.0156 152.031 32.4844C152.406 31.9531 152.766 31.4531 153.109 30.9844C153.422 30.5156 153.641 30.1875 153.766 30C153.891 29.875 154.094 29.6406 154.375 29.2969C154.656 28.9531 154.938 28.5938 155.219 28.2188C155.5 27.8125 155.766 27.4375 156.016 27.0938C156.297 26.75 156.5 26.5 156.625 26.3438C156.719 26.0625 156.922 25.6875 157.234 25.2188C157.547 24.7188 157.891 24.2188 158.266 23.7188C158.641 23.1875 159 22.6875 159.344 22.2188C159.719 21.75 160 21.375 160.188 21.0938C160.344 20.8438 160.469 20.625 160.562 20.4375C160.688 20.25 160.812 20.0469 160.938 19.8281C161 19.7656 161.062 19.7031 161.125 19.6406C161.188 19.5469 161.234 19.4688 161.266 19.4062C161.328 19.1562 161.297 18.9844 161.172 18.8906C161.047 18.7656 161 18.5938 161.031 18.375C161.281 17.875 161.547 17.5469 161.828 17.3906C162.141 17.2031 162.422 16.9375 162.672 16.5938C162.828 16.4688 162.969 16.375 163.094 16.3125C163.25 16.25 163.406 16.1406 163.562 15.9844C163.688 15.8594 163.844 15.7969 164.031 15.7969C164.219 15.7656 164.391 15.7812 164.547 15.8438C164.734 15.875 164.891 15.9375 165.016 16.0312C165.172 16.0938 165.266 16.1562 165.297 16.2188C165.328 16.3125 165.328 16.4375 165.297 16.5938C165.266 16.75 165.234 16.9062 165.203 17.0625C165.141 17.3438 165.078 17.6094 165.016 17.8594C164.953 18.0781 164.891 18.3281 164.828 18.6094C164.766 18.9531 164.703 19.2812 164.641 19.5938C164.609 19.9062 164.719 20.2031 164.969 20.4844C164.938 20.6406 164.938 20.8281 164.969 21.0469C165.031 21.2656 165.094 21.4688 165.156 21.6562C165.219 22.6562 165.391 23.6562 165.672 24.6562C165.984 25.625 166.312 26.5156 166.656 27.3281C166.656 27.4844 166.672 27.6406 166.703 27.7969C166.766 27.9531 166.828 28.1094 166.891 28.2656C166.984 29.2656 166.891 30.2656 166.609 31.2656C166.328 32.2344 166.062 33.1875 165.812 34.125C165.625 34.4375 165.469 34.7969 165.344 35.2031C165.281 35.3906 165.219 35.5469 165.156 35.6719C165.094 35.7969 165 35.9375 164.875 36.0938C164.719 36.3438 164.578 36.625 164.453 36.9375C164.328 37.25 164.078 37.5 163.703 37.6875C163.484 37.75 163.266 37.75 163.047 37.6875C162.859 37.625 162.672 37.625 162.484 37.6875C162.328 37.7188 162.188 37.75 162.062 37.7812C161.938 37.8438 161.812 37.875 161.688 37.875C161.281 37.9375 160.938 37.8906 160.656 37.7344C160.406 37.6094 160.094 37.5156 159.719 37.4531C159.719 37.3594 159.672 37.2812 159.578 37.2188C159.484 37.1875 159.406 37.1406 159.344 37.0781C159.219 36.5781 159.094 36.2188 158.969 36C158.844 35.7812 158.75 35.5469 158.688 35.2969C158.594 34.9531 158.547 34.625 158.547 34.3125C158.547 33.9688 158.469 33.625 158.312 33.2812C158.188 33.0312 158.125 32.8594 158.125 32.7656C158.156 32.6719 158.172 32.5781 158.172 32.4844C158.172 32.0781 158.141 31.6406 158.078 31.1719C158.047 30.6719 158.25 30.2656 158.688 29.9531C158.844 29.8281 158.953 29.6719 159.016 29.4844C159.109 29.2656 159.25 29.0781 159.438 28.9219C159.5 28.8594 159.594 28.8281 159.719 28.8281C159.875 28.8281 159.984 28.8438 160.047 28.875L160.328 29.1094ZM180.812 12.6562C180.875 12.75 180.906 12.8438 180.906 12.9375C180.906 13.0312 180.953 13.1094 181.047 13.1719C180.984 13.4531 180.922 13.75 180.859 14.0625C180.828 14.3438 180.812 14.625 180.812 14.9062C180.812 15.0312 180.844 15.1406 180.906 15.2344C181 15.3281 181.047 15.4219 181.047 15.5156C180.891 15.8906 180.766 16.1094 180.672 16.1719C180.609 16.2344 180.578 16.3125 180.578 16.4062C180.422 16.4688 180.297 16.5625 180.203 16.6875C180.141 16.8125 180.016 16.875 179.828 16.875C179.766 16.9688 179.688 17.0469 179.594 17.1094C179.531 17.1406 179.484 17.2188 179.453 17.3438C178.953 17.5625 178.391 17.5469 177.766 17.2969C177.609 17.0156 177.391 16.8125 177.109 16.6875C176.703 16.0938 176.688 15.3906 177.062 14.5781C177.125 14.4219 177.188 14.2656 177.25 14.1094C177.344 13.9219 177.422 13.7969 177.484 13.7344C177.828 13.4844 178.078 13.3281 178.234 13.2656C178.359 13.2031 178.484 13.125 178.609 13.0312C178.766 12.9375 178.938 12.8594 179.125 12.7969C179.188 12.7656 179.266 12.75 179.359 12.75C179.484 12.75 179.609 12.7188 179.734 12.6562C179.859 12.625 179.969 12.5938 180.062 12.5625C180.156 12.5312 180.25 12.5156 180.344 12.5156L180.812 12.6562ZM173.547 33.375C173.828 33.25 174.172 33.2031 174.578 33.2344C174.984 33.2656 175.312 33.2031 175.562 33.0469C175.688 32.9531 175.797 32.8594 175.891 32.7656C175.984 32.6719 176.094 32.6406 176.219 32.6719C176.719 32.4844 177.141 32.2969 177.484 32.1094C177.828 31.9219 178.203 31.7812 178.609 31.6875C178.703 31.6562 178.812 31.5938 178.938 31.5C179.094 31.4062 179.203 31.3281 179.266 31.2656C179.766 31.1094 180.125 30.9531 180.344 30.7969C180.562 30.6406 180.766 30.4844 180.953 30.3281C181.172 30.1719 181.375 30.0156 181.562 29.8594C181.781 29.6719 182.047 29.4531 182.359 29.2031C182.797 28.9531 183.156 28.7344 183.438 28.5469C183.75 28.3594 184.078 28.125 184.422 27.8438C184.484 27.6875 184.562 27.5781 184.656 27.5156C184.781 27.4219 184.875 27.3125 184.938 27.1875C185.5 27.1875 185.812 27.4062 185.875 27.8438C185.719 28.1875 185.5 28.4688 185.219 28.6875C184.969 28.9062 184.734 29.1562 184.516 29.4375C184.266 29.5938 184.062 29.7344 183.906 29.8594C183.75 29.9844 183.594 30.1719 183.438 30.4219C183.406 30.4219 183.312 30.5 183.156 30.6562C183 30.7812 182.906 30.8438 182.875 30.8438C182.688 31.0625 182.547 31.2031 182.453 31.2656C182.391 31.3281 182.328 31.375 182.266 31.4062C182.234 31.4062 182.172 31.4375 182.078 31.5C182.016 31.5625 181.875 31.6875 181.656 31.875C181.438 32.2188 181.156 32.5 180.812 32.7188C180.156 33.3438 179.438 33.8906 178.656 34.3594C177.906 34.7969 177.219 35.2344 176.594 35.6719C176.469 35.7344 176.359 35.8281 176.266 35.9531C176.172 36.0469 176.062 36.1406 175.938 36.2344C175.781 36.3594 175.531 36.4844 175.188 36.6094C174.875 36.7344 174.594 36.8438 174.344 36.9375C174.156 37.0625 173.984 37.1562 173.828 37.2188C173.141 37.25 172.609 37.1406 172.234 36.8906C171.828 36.6719 171.516 36.5 171.297 36.375C171.078 36.25 170.891 36.0469 170.734 35.7656C170.391 35.6094 170.172 35.3281 170.078 34.9219C170.016 34.4844 169.938 34.0625 169.844 33.6562C169.812 33.5 169.781 33.3281 169.75 33.1406C169.719 32.9219 169.719 32.7031 169.75 32.4844C169.812 32.1406 169.859 31.7812 169.891 31.4062C169.922 31 170 30.6562 170.125 30.375C170.281 30.0312 170.359 29.6875 170.359 29.3438C170.391 29 170.484 28.6562 170.641 28.3125C170.828 28 170.906 27.8281 170.875 27.7969C170.875 27.7656 170.891 27.7188 170.922 27.6562C170.984 27.5625 171.047 27.4688 171.109 27.375C171.203 27.2812 171.281 27.1719 171.344 27.0469L171.625 26.3438C171.75 26.125 171.891 25.9062 172.047 25.6875C172.203 25.4688 172.328 25.2031 172.422 24.8906C172.484 24.7031 172.562 24.5312 172.656 24.375C172.781 24.2188 172.906 24.0469 173.031 23.8594C173.125 23.6719 173.203 23.4844 173.266 23.2969C173.328 23.0781 173.406 22.8594 173.5 22.6406C173.594 22.3906 173.703 22.1406 173.828 21.8906C173.984 21.6406 174.141 21.3906 174.297 21.1406C174.422 20.8906 174.531 20.7031 174.625 20.5781C174.719 20.4531 174.906 20.375 175.188 20.3438C175.312 20.3125 175.453 20.3281 175.609 20.3906C175.766 20.4219 175.922 20.4062 176.078 20.3438C176.484 20.1562 176.766 20.0625 176.922 20.0625C177.078 20.0625 177.188 20.0156 177.25 19.9219C177.594 19.9531 177.844 20.0625 178 20.25C178.156 20.4375 178.344 20.625 178.562 20.8125C178.375 21.7188 178.156 22.4219 177.906 22.9219C177.688 23.3906 177.438 23.8906 177.156 24.4219C177 24.6719 176.844 24.9531 176.688 25.2656C176.531 25.5781 176.391 25.8594 176.266 26.1094C176.109 26.4531 175.938 26.7656 175.75 27.0469C175.594 27.2969 175.453 27.5938 175.328 27.9375C175.266 28.0938 175.188 28.25 175.094 28.4062C175.031 28.5312 174.969 28.6719 174.906 28.8281C174.844 29.0469 174.75 29.25 174.625 29.4375C174.531 29.5938 174.438 29.75 174.344 29.9062C174.25 30.0938 174.156 30.2812 174.062 30.4688C173.969 30.6562 173.891 30.8594 173.828 31.0781C173.672 31.4531 173.578 31.6875 173.547 31.7812C173.516 31.8438 173.484 31.9062 173.453 31.9688C173.391 32.3125 173.297 32.5938 173.172 32.8125C173.047 33.0312 173.094 33.1875 173.312 33.2812L173.547 33.375ZM187.469 29.1094C187.531 29.2344 187.5 29.4062 187.375 29.625C187.281 29.8438 187.203 30.0312 187.141 30.1875C187.172 30.3125 187.203 30.4219 187.234 30.5156C187.266 30.5781 187.25 30.6719 187.188 30.7969C187.406 30.9531 187.547 31.1406 187.609 31.3594C187.672 31.5469 187.781 31.75 187.938 31.9688C188.094 32.1562 188.25 32.3125 188.406 32.4375C188.594 32.5625 188.766 32.7031 188.922 32.8594C189.078 32.7656 189.203 32.7188 189.297 32.7188C189.391 32.7188 189.516 32.6875 189.672 32.625C189.953 32.25 190.172 31.8125 190.328 31.3125C190.359 31.1875 190.391 31.0469 190.422 30.8906C190.453 30.7344 190.469 30.5938 190.469 30.4688C190.438 30.0312 190.312 29.6094 190.094 29.2031C189.875 28.7969 189.703 28.375 189.578 27.9375C189.453 27.6875 189.406 27.4062 189.438 27.0938C189.5 26.7812 189.5 26.5 189.438 26.25C189.406 26.0938 189.359 25.9688 189.297 25.875C189.234 25.7812 189.172 25.6719 189.109 25.5469C189.047 25.2969 189.016 25.0156 189.016 24.7031C189.047 24.3906 188.984 24.125 188.828 23.9062C188.703 24.0312 188.5 24.2656 188.219 24.6094C187.938 24.9531 187.641 25.3281 187.328 25.7344C187.016 26.1406 186.719 26.5156 186.438 26.8594C186.188 27.2031 186 27.4375 185.875 27.5625C185.719 27.7812 185.547 27.9844 185.359 28.1719C185.172 28.3281 185 28.5156 184.844 28.7344C184.719 28.8906 184.5 29.1562 184.188 29.5312C183.906 29.875 183.609 30.25 183.297 30.6562C182.984 31.0625 182.703 31.4531 182.453 31.8281C182.172 32.1719 181.984 32.4062 181.891 32.5312C181.828 32.625 181.672 32.8594 181.422 33.2344C181.141 33.6094 180.844 34.0156 180.531 34.4531C180.188 34.8906 179.891 35.2969 179.641 35.6719C179.359 36.0469 179.188 36.2969 179.125 36.4219C178.938 36.7344 178.703 37 178.422 37.2188C178.109 37.4688 177.75 37.5938 177.344 37.5938C177.312 37.5625 177.281 37.4688 177.25 37.3125C177.219 37.1875 177.203 37.0469 177.203 36.8906C177.172 36.7344 177.141 36.5781 177.109 36.4219C177.047 36.2969 177 36.2031 176.969 36.1406C177.062 35.9531 177.141 35.7656 177.203 35.5781C177.234 35.3906 177.359 35.2188 177.578 35.0625C177.641 34.8438 177.828 34.5 178.141 34.0312C178.453 33.5312 178.797 33.0156 179.172 32.4844C179.547 31.9531 179.906 31.4531 180.25 30.9844C180.562 30.5156 180.781 30.1875 180.906 30C181.031 29.875 181.234 29.6406 181.516 29.2969C181.797 28.9531 182.078 28.5938 182.359 28.2188C182.641 27.8125 182.906 27.4375 183.156 27.0938C183.438 26.75 183.641 26.5 183.766 26.3438C183.859 26.0625 184.062 25.6875 184.375 25.2188C184.688 24.7188 185.031 24.2188 185.406 23.7188C185.781 23.1875 186.141 22.6875 186.484 22.2188C186.859 21.75 187.141 21.375 187.328 21.0938C187.484 20.8438 187.609 20.625 187.703 20.4375C187.828 20.25 187.953 20.0469 188.078 19.8281C188.141 19.7656 188.203 19.7031 188.266 19.6406C188.328 19.5469 188.375 19.4688 188.406 19.4062C188.469 19.1562 188.438 18.9844 188.312 18.8906C188.188 18.7656 188.141 18.5938 188.172 18.375C188.422 17.875 188.688 17.5469 188.969 17.3906C189.281 17.2031 189.562 16.9375 189.812 16.5938C189.969 16.4688 190.109 16.375 190.234 16.3125C190.391 16.25 190.547 16.1406 190.703 15.9844C190.828 15.8594 190.984 15.7969 191.172 15.7969C191.359 15.7656 191.531 15.7812 191.688 15.8438C191.875 15.875 192.031 15.9375 192.156 16.0312C192.312 16.0938 192.406 16.1562 192.438 16.2188C192.469 16.3125 192.469 16.4375 192.438 16.5938C192.406 16.75 192.375 16.9062 192.344 17.0625C192.281 17.3438 192.219 17.6094 192.156 17.8594C192.094 18.0781 192.031 18.3281 191.969 18.6094C191.906 18.9531 191.844 19.2812 191.781 19.5938C191.75 19.9062 191.859 20.2031 192.109 20.4844C192.078 20.6406 192.078 20.8281 192.109 21.0469C192.172 21.2656 192.234 21.4688 192.297 21.6562C192.359 22.6562 192.531 23.6562 192.812 24.6562C193.125 25.625 193.453 26.5156 193.797 27.3281C193.797 27.4844 193.812 27.6406 193.844 27.7969C193.906 27.9531 193.969 28.1094 194.031 28.2656C194.125 29.2656 194.031 30.2656 193.75 31.2656C193.469 32.2344 193.203 33.1875 192.953 34.125C192.766 34.4375 192.609 34.7969 192.484 35.2031C192.422 35.3906 192.359 35.5469 192.297 35.6719C192.234 35.7969 192.141 35.9375 192.016 36.0938C191.859 36.3438 191.719 36.625 191.594 36.9375C191.469 37.25 191.219 37.5 190.844 37.6875C190.625 37.75 190.406 37.75 190.188 37.6875C190 37.625 189.812 37.625 189.625 37.6875C189.469 37.7188 189.328 37.75 189.203 37.7812C189.078 37.8438 188.953 37.875 188.828 37.875C188.422 37.9375 188.078 37.8906 187.797 37.7344C187.547 37.6094 187.234 37.5156 186.859 37.4531C186.859 37.3594 186.812 37.2812 186.719 37.2188C186.625 37.1875 186.547 37.1406 186.484 37.0781C186.359 36.5781 186.234 36.2188 186.109 36C185.984 35.7812 185.891 35.5469 185.828 35.2969C185.734 34.9531 185.688 34.625 185.688 34.3125C185.688 33.9688 185.609 33.625 185.453 33.2812C185.328 33.0312 185.266 32.8594 185.266 32.7656C185.297 32.6719 185.312 32.5781 185.312 32.4844C185.312 32.0781 185.281 31.6406 185.219 31.1719C185.188 30.6719 185.391 30.2656 185.828 29.9531C185.984 29.8281 186.094 29.6719 186.156 29.4844C186.25 29.2656 186.391 29.0781 186.578 28.9219C186.641 28.8594 186.734 28.8281 186.859 28.8281C187.016 28.8281 187.125 28.8438 187.188 28.875L187.469 29.1094Z" fill="#FFC700"/>
</svg>
