<svg width="129" height="39" viewBox="0 0 129 39" fill="none" xmlns="http://www.w3.org/2000/svg">
<path d="M26.5312 2.48438C26.75 2.76562 27 2.98437 27.2812 3.14062C27.5938 3.29688 27.875 3.5 28.125 3.75C28.3125 3.96875 28.4375 4.10937 28.5 4.17188C28.5 4.51563 28.4219 4.84375 28.2656 5.15625C28.1406 5.46875 28.0625 5.8125 28.0312 6.1875C27.9688 7 27.8438 7.64062 27.6562 8.10938C27.4688 8.54688 27.3906 8.95312 27.4219 9.32812C27.4219 9.60938 27.5 9.90625 27.6562 10.2188C27.8125 10.5312 27.7656 10.8125 27.5156 11.0625C27.3594 11.2188 27.1875 11.3281 27 11.3906C26.8438 11.4219 26.6406 11.4688 26.3906 11.5312C26.1406 11.5938 25.8906 11.6719 25.6406 11.7656C25.4219 11.8281 25.1875 11.8594 24.9375 11.8594C24.7812 11.8281 24.6094 11.7969 24.4219 11.7656C24.2656 11.7344 24.0938 11.7031 23.9062 11.6719C23.8125 11.5781 23.7344 11.5 23.6719 11.4375C23.6406 11.3438 23.5938 11.2188 23.5312 11.0625C23.5938 10.9062 23.6094 10.7656 23.5781 10.6406C23.5781 10.4844 23.5938 10.3281 23.625 10.1719C23.6562 9.73438 23.7656 9.34375 23.9531 9C24.1719 8.625 24.3281 8.25 24.4219 7.875C24.4219 7.59375 24.4688 7.35938 24.5625 7.17188C24.5625 6.92187 24.6094 6.70312 24.7031 6.51562C24.7969 6.32812 24.8281 6.14062 24.7969 5.95312C24.9219 5.79687 25 5.625 25.0312 5.4375C25.0625 5.21875 25.1094 4.98438 25.1719 4.73438C24.8906 4.60938 24.5781 4.54688 24.2344 4.54688C23.8906 4.51563 23.5938 4.57812 23.3438 4.73438C22.1562 4.76562 21.1875 5.09375 20.4375 5.71875C19.6875 6.3125 19.0781 7.01562 18.6094 7.82812C18.3594 8.10938 18.1094 8.4375 17.8594 8.8125C17.6406 9.15625 17.4062 9.5 17.1562 9.84375C16.8438 10.3125 16.5938 10.6719 16.4062 10.9219C16.2188 11.1719 16.0469 11.4219 15.8906 11.6719C15.7656 11.8594 15.6562 12.0625 15.5625 12.2812C15.4688 12.4688 15.3594 12.6719 15.2344 12.8906C15.1406 13.1094 15.0312 13.3281 14.9062 13.5469C14.7812 13.7344 14.6719 13.9531 14.5781 14.2031C14.5469 14.2969 14.5156 14.3906 14.4844 14.4844C14.4531 14.5781 14.4219 14.6562 14.3906 14.7188C14.3594 14.8125 14.3594 14.9219 14.3906 15.0469C14.4219 15.1406 14.4531 15.2188 14.4844 15.2812C14.5156 15.4375 14.5312 15.5781 14.5312 15.7031C14.5312 15.8281 14.5625 15.9688 14.625 16.125C14.8125 16.4375 14.9375 16.6875 15 16.875C15.0625 17.0312 15.1406 17.1875 15.2344 17.3438C15.3281 17.5 15.4219 17.6406 15.5156 17.7656C15.6406 17.8594 15.75 17.9688 15.8438 18.0938C16.1875 18.1562 16.5 18.2188 16.7812 18.2812C17.0938 18.3438 17.3906 18.3906 17.6719 18.4219C18.0156 18.4531 18.3438 18.4219 18.6562 18.3281C19 18.2344 19.3281 18.2188 19.6406 18.2812C19.9219 18.0938 20.1875 18.1094 20.4375 18.3281C20.6875 18.5469 20.8438 18.75 20.9062 18.9375C20.9375 19.1562 20.9219 19.4062 20.8594 19.6875C20.8281 19.9688 20.7656 20.1875 20.6719 20.3438C20.5469 20.5625 20.375 20.75 20.1562 20.9062C19.9688 21.0312 19.7969 21.1406 19.6406 21.2344C19.2969 21.2656 18.9844 21.3281 18.7031 21.4219C18.4219 21.4844 18.125 21.5 17.8125 21.4688C17.0625 21.6562 16.2656 21.8438 15.4219 22.0312C14.6094 22.2188 13.7969 22.4375 12.9844 22.6875C12.6719 22.75 12.4844 22.8125 12.4219 22.875C12.3594 22.9375 12.25 22.9688 12.0938 22.9688C11.6562 23.125 11.25 23.2969 10.875 23.4844C10.5 23.6719 10.1406 23.8906 9.79688 24.1406C9.51562 24.3906 9.29688 24.5625 9.14062 24.6562C8.98438 24.75 8.875 24.9062 8.8125 25.125C8.40625 25.5938 7.95312 26.0312 7.45312 26.4375L6.1875 28.0312C6.03125 28.1875 5.9375 28.2969 5.90625 28.3594C5.90625 28.4219 5.89062 28.5312 5.85938 28.6875C5.85938 29 5.8125 29.3281 5.71875 29.6719C5.65625 30.0156 5.60938 30.3281 5.57812 30.6094C5.54688 30.9844 5.54688 31.3281 5.57812 31.6406C5.60938 31.9531 5.70312 32.2344 5.85938 32.4844C5.92188 32.5469 5.98438 32.6406 6.04688 32.7656C6.14062 32.8594 6.21875 32.9844 6.28125 33.1406C6.40625 33.3594 6.51562 33.5469 6.60938 33.7031C6.70312 33.8281 6.875 33.9688 7.125 34.125C7.21875 34.1875 7.32812 34.25 7.45312 34.3125C7.57812 34.375 7.67188 34.4062 7.73438 34.4062C7.79688 34.4062 7.875 34.3906 7.96875 34.3594C8.09375 34.2969 8.20312 34.25 8.29688 34.2188C8.39062 34.1875 8.48438 34.1719 8.57812 34.1719C8.67188 34.1719 8.75 34.1406 8.8125 34.0781C9.34375 33.9219 9.79688 33.7031 10.1719 33.4219C10.5781 33.1406 11.0312 32.8906 11.5312 32.6719C11.6562 32.6094 11.7812 32.5469 11.9062 32.4844C12.0625 32.3906 12.2188 32.3125 12.375 32.25C12.75 31.9688 13.125 31.6875 13.5 31.4062C13.9062 31.125 14.3594 30.8594 14.8594 30.6094C15.2031 30.4531 15.5312 30.2656 15.8438 30.0469C16.1562 29.8281 16.4375 29.6094 16.6875 29.3906C16.8438 29.1094 17 28.875 17.1562 28.6875C17.3438 28.5 17.4844 28.2656 17.5781 27.9844C17.7031 27.9531 17.7812 27.8906 17.8125 27.7969C17.875 27.6719 17.9531 27.5625 18.0469 27.4688C17.9844 27.3438 17.9375 27.2188 17.9062 27.0938C17.875 26.9375 17.8125 26.8281 17.7188 26.7656C17.4375 26.7969 17.1562 26.7656 16.875 26.6719C16.5938 26.5781 16.2812 26.5625 15.9375 26.625C15.875 26.625 15.7969 26.6406 15.7031 26.6719C15.6094 26.7031 15.5156 26.7344 15.4219 26.7656C14.9219 26.8594 14.4375 27.0156 13.9688 27.2344C13.5312 27.4531 13.1719 27.7188 12.8906 28.0312C12.8594 28.1875 12.7969 28.2969 12.7031 28.3594C12.6406 28.4219 12.5781 28.5 12.5156 28.5938C12.3594 28.9062 12.2188 29.2344 12.0938 29.5781C12 29.8906 11.8438 30.1875 11.625 30.4688C11.5312 30.4688 11.4375 30.4219 11.3438 30.3281C11.25 30.2344 11.1875 30.1406 11.1562 30.0469C11.1562 29.9844 11.1719 29.8906 11.2031 29.7656C11.2344 29.6094 11.25 29.4844 11.25 29.3906C11.2812 29.2969 11.2812 29.2188 11.25 29.1562C11.2188 29.0625 11.2188 28.9375 11.25 28.7812C11.2812 28.5938 11.3125 28.375 11.3438 28.125C11.375 27.875 11.4219 27.6719 11.4844 27.5156C11.6094 27.0781 11.7344 26.7812 11.8594 26.625C11.9844 26.4375 12.1406 26.3125 12.3281 26.25C12.3906 26.1562 12.4688 26.0781 12.5625 26.0156C12.6875 25.9219 12.8281 25.8281 12.9844 25.7344C13.2344 25.5781 13.3906 25.4688 13.4531 25.4062C13.5156 25.3125 13.5938 25.2344 13.6875 25.1719C13.8438 25.1094 14.0156 25.0469 14.2031 24.9844C14.4219 24.8906 14.6094 24.8281 14.7656 24.7969C14.9844 24.7656 15.2031 24.7188 15.4219 24.6562C15.6719 24.5625 15.9375 24.5156 16.2188 24.5156C16.5312 24.5781 16.75 24.625 16.875 24.6562C17 24.6562 17.1094 24.6406 17.2031 24.6094C17.3281 24.5781 17.4531 24.5781 17.5781 24.6094C17.6719 24.6094 17.75 24.625 17.8125 24.6562C17.9062 24.6562 18 24.6562 18.0938 24.6562C18.2812 24.625 18.4531 24.5938 18.6094 24.5625C18.7969 24.5312 18.9531 24.5938 19.0781 24.75C19.3594 24.8125 19.5938 24.9375 19.7812 25.125C20 25.2812 20.1875 25.4531 20.3438 25.6406C20.4062 25.7344 20.4688 25.8125 20.5312 25.875C20.5938 25.9375 20.6562 26.0312 20.7188 26.1562C20.875 26.5312 20.9062 26.9375 20.8125 27.375C20.75 27.8125 20.6094 28.1875 20.3906 28.5C20.3594 28.625 20.3125 28.7344 20.25 28.8281C20.1875 28.8906 20.125 28.9688 20.0625 29.0625C19.375 29.75 18.8906 30.4062 18.6094 31.0312C18.2031 31.3125 17.8438 31.625 17.5312 31.9688C17.25 32.3125 16.9062 32.6094 16.5 32.8594C16.2812 33.1094 16.0156 33.3125 15.7031 33.4688C15.4219 33.5938 15.1562 33.75 14.9062 33.9375C14.625 34.1562 14.3125 34.375 13.9688 34.5938C13.6562 34.8125 13.3281 35 12.9844 35.1562C12.7031 35.3438 12.4062 35.4844 12.0938 35.5781C11.7188 35.8281 11.3125 36.0312 10.875 36.1875C10.4688 36.3438 10.0781 36.5469 9.70312 36.7969C9.17188 36.9531 8.625 37.1719 8.0625 37.4531C7.53125 37.7344 7.01562 37.9531 6.51562 38.1094C6.32812 38.1406 6.07812 38.1094 5.76562 38.0156C5.51562 37.9531 5.21875 37.7969 4.875 37.5469C4.53125 37.3281 4.29688 37.0938 4.17188 36.8438C3.95312 36.7812 3.78125 36.625 3.65625 36.375C3.5625 36.125 3.4375 35.9062 3.28125 35.7188C3.1875 35.5625 3.09375 35.4062 3 35.25C2.875 35.0625 2.76562 34.8594 2.67188 34.6406C2.39062 34.2656 2.1875 33.9219 2.0625 33.6094C1.90625 33.1406 1.8125 32.8438 1.78125 32.7188C1.71875 32.5938 1.65625 32.4531 1.59375 32.2969C1.53125 32.1406 1.46875 32 1.40625 31.875C1.3125 31.75 1.21875 31.625 1.125 31.5C1 30.875 1.0625 30.25 1.3125 29.625C1.53125 29 1.75 28.4688 1.96875 28.0312C2.09375 27.875 2.1875 27.7344 2.25 27.6094C2.3125 27.4531 2.375 27.2969 2.4375 27.1406C2.59375 26.8594 2.75 26.6094 2.90625 26.3906C3.0625 26.1406 3.21875 25.8906 3.375 25.6406C3.53125 25.3906 3.65625 25.125 3.75 24.8438C3.875 24.5625 4.03125 24.2969 4.21875 24.0469C4.3125 23.7031 4.46875 23.4531 4.6875 23.2969C4.90625 23.1094 5.125 22.8906 5.34375 22.6406C5.5 22.5781 5.625 22.5 5.71875 22.4062C5.84375 22.3125 5.96875 22.2188 6.09375 22.125C6.8125 21.8125 7.45312 21.5 8.01562 21.1875C8.60938 20.875 9.21875 20.5938 9.84375 20.3438C10.7812 20.1562 11.7344 19.8594 12.7031 19.4531C12.4531 19.1719 12.25 18.8125 12.0938 18.375C11.9688 17.9062 11.8281 17.4219 11.6719 16.9219C11.6406 16.7969 11.5938 16.6875 11.5312 16.5938C11.4688 16.4688 11.4219 16.3438 11.3906 16.2188C11.3281 15.9062 11.2812 15.7188 11.25 15.6562C11.25 15.5938 11.2344 15.5312 11.2031 15.4688C11.1719 15.25 11.1562 15.0312 11.1562 14.8125C11.1562 14.5625 11.1562 14.3125 11.1562 14.0625C11.1562 13.9062 11.1562 13.7344 11.1562 13.5469C11.1562 13.3594 11.1875 13.1875 11.25 13.0312C11.375 12.7188 11.4219 12.5156 11.3906 12.4219C11.3906 12.3281 11.4062 12.2344 11.4375 12.1406C11.4688 12.0156 11.5 11.9219 11.5312 11.8594C11.5938 11.7969 11.625 11.6875 11.625 11.5312C11.7812 11.3125 11.9375 11.0781 12.0938 10.8281C12.2812 10.5781 12.4531 10.3281 12.6094 10.0781C12.8281 9.73438 13.0312 9.4375 13.2188 9.1875C13.4062 8.9375 13.5625 8.67188 13.6875 8.39062C13.9375 8.23438 14.1406 8.03125 14.2969 7.78125C14.4844 7.53125 14.6875 7.3125 14.9062 7.125C15.3125 6.65625 15.7031 6.20313 16.0781 5.76562C16.4844 5.29688 16.9375 4.89063 17.4375 4.54688C17.7812 4.39062 18.0938 4.20312 18.375 3.98438C18.6562 3.76563 18.9375 3.5625 19.2188 3.375C19.5 3.125 19.7969 2.9375 20.1094 2.8125C20.4531 2.65625 20.7812 2.46875 21.0938 2.25C21.25 2.21875 21.375 2.17188 21.4688 2.10938C21.5625 2.04687 21.6719 1.98438 21.7969 1.92188C22.0156 1.79688 22.3125 1.6875 22.6875 1.59375C22.9062 1.53125 23.0938 1.46875 23.25 1.40625C23.4375 1.34375 23.6562 1.32813 23.9062 1.35938C24.2188 1.39062 24.4844 1.4375 24.7031 1.5C24.9219 1.53125 25.1094 1.625 25.2656 1.78125C25.5156 1.8125 25.7188 1.90625 25.875 2.0625C26.0312 2.1875 26.1875 2.32812 26.3438 2.48438H26.5312ZM30.375 19.7812C30.625 19.7188 30.7656 19.7188 30.7969 19.7812C30.8281 19.8125 30.8906 19.8281 30.9844 19.8281C31.1094 19.9844 31.125 20.2344 31.0312 20.5781C30.9062 21.1094 30.6875 21.5938 30.375 22.0312C30.0625 22.4375 29.8125 22.875 29.625 23.3438C29.4062 23.7812 29.2344 24.125 29.1094 24.375C28.9844 24.5938 28.875 24.8281 28.7812 25.0781C28.625 25.4219 28.4688 25.8125 28.3125 26.25C28.1562 26.6562 28 27.0781 27.8438 27.5156C27.7188 27.7656 27.625 27.9688 27.5625 28.125C27.4062 28.4688 27.2812 28.7812 27.1875 29.0625C27.0938 29.3125 27.0312 29.6406 27 30.0469V31.3125C27.0625 31.75 27.0938 32.2188 27.0938 32.7188C27.125 33.2188 27.2344 33.6406 27.4219 33.9844C27.8281 33.7969 28.25 33.4844 28.6875 33.0469C29.125 32.5781 29.5156 32.2188 29.8594 31.9688C30.0781 31.6562 30.3125 31.375 30.5625 31.125C30.8438 30.8438 31.0781 30.5312 31.2656 30.1875C31.6406 29.875 31.8906 29.4688 32.0156 28.9688C32.1719 28.7812 32.3125 28.5938 32.4375 28.4062C32.5938 28.1875 32.75 27.9688 32.9062 27.75C33.1562 27.4062 33.3594 27.0156 33.5156 26.5781C33.6094 26.3281 33.6406 26.0781 33.6094 25.8281C33.6094 25.5781 33.6094 25.3281 33.6094 25.0781C33.6406 24.7969 33.6875 24.5312 33.75 24.2812C33.8125 24.0312 33.8281 23.7812 33.7969 23.5312C33.8594 23.4062 33.9062 23.2812 33.9375 23.1562C34 23 34.0625 22.8438 34.125 22.6875C34.1875 22.5312 34.2969 22.3594 34.4531 22.1719C34.6406 21.9844 34.8125 21.8125 34.9688 21.6562C35.1875 21.375 35.3906 21.0938 35.5781 20.8125C35.7656 20.5312 36 20.3125 36.2812 20.1562C36.4375 20.0938 36.625 20.0156 36.8438 19.9219C37.0625 19.8281 37.25 19.7656 37.4062 19.7344C37.625 19.7031 37.9375 19.6406 38.3438 19.5469C38.75 19.4219 39.0625 19.3906 39.2812 19.4531C39.4062 19.4844 39.5156 19.5625 39.6094 19.6875C39.7344 19.7812 39.875 19.7656 40.0312 19.6406C40.2812 19.9219 40.4062 20.1562 40.4062 20.3438C40.4062 20.5312 40.3438 20.7344 40.2188 20.9531C40.0312 21.2344 39.9219 21.4219 39.8906 21.5156C39.8594 21.5781 39.8281 21.6406 39.7969 21.7031C39.5156 22.1719 39.2344 22.6875 38.9531 23.25C38.6719 23.8125 38.4375 24.3438 38.25 24.8438C38.5625 25 38.9688 25.0781 39.4688 25.0781C40 25.0469 40.4688 24.9844 40.875 24.8906C41 24.8594 41.1094 24.8281 41.2031 24.7969C41.3281 24.7656 41.4531 24.7344 41.5781 24.7031C41.8281 24.6406 42.125 24.5938 42.4688 24.5625C42.8438 24.5 43.1562 24.4062 43.4062 24.2812C43.75 24.0938 43.9688 24 44.0625 24C44.1562 24 44.2656 23.9688 44.3906 23.9062C44.9844 23.75 45.4844 23.5938 45.8906 23.4375C46.1094 23.375 46.3281 23.2969 46.5469 23.2031C46.7656 23.0781 46.9688 23.0469 47.1562 23.1094C47.2188 23.1719 47.2344 23.2812 47.2031 23.4375C47.2031 23.5938 47.25 23.75 47.3438 23.9062C47.0938 24.125 46.9062 24.2188 46.7812 24.1875C46.2812 24.4375 45.7344 24.6719 45.1406 24.8906C44.5781 25.0781 44.0312 25.2656 43.5 25.4531C43.125 25.6094 42.875 25.6875 42.75 25.6875C42.625 25.6562 42.4844 25.6719 42.3281 25.7344C41.7656 25.9844 41.3125 26.1562 40.9688 26.25C40.6562 26.3438 40.3906 26.4531 40.1719 26.5781C40.0781 26.6406 39.9844 26.7188 39.8906 26.8125C39.8281 26.875 39.7344 26.9219 39.6094 26.9531C39.1094 27.0469 38.6562 27.0938 38.25 27.0938C37.8438 27.0625 37.4375 27.1562 37.0312 27.375C36.9375 27.5625 36.8125 27.7812 36.6562 28.0312C36.5 28.25 36.3281 28.4375 36.1406 28.5938C35.9844 28.9062 35.8125 29.1719 35.625 29.3906C35.4688 29.6094 35.2812 29.8438 35.0625 30.0938C34.7812 30.3438 34.5 30.6094 34.2188 30.8906C33.9375 31.1719 33.6719 31.4375 33.4219 31.6875C32.9844 32.4062 32.4688 33.0781 31.875 33.7031C31.3125 34.2969 30.7188 34.8906 30.0938 35.4844C29.9375 35.5156 29.7812 35.5938 29.625 35.7188C29.5 35.8125 29.3594 35.8906 29.2031 35.9531C28.7969 36.0781 28.5625 36.1562 28.5 36.1875C28.4375 36.2188 28.3438 36.2656 28.2188 36.3281C27.9688 36.4531 27.7969 36.5312 27.7031 36.5625C27.6406 36.625 27.5781 36.6875 27.5156 36.75C27.4219 36.8125 27.3281 36.8438 27.2344 36.8438C27.1406 36.8438 27.0625 36.9062 27 37.0312C26.5938 36.9688 26.3594 37.0156 26.2969 37.1719C26.1406 37.1719 26.0156 37.1875 25.9219 37.2188C25.8281 37.25 25.7188 37.25 25.5938 37.2188C25.5 37.1562 25.4219 37.0781 25.3594 36.9844C25.3281 36.9219 25.2812 36.8594 25.2188 36.7969C24.75 36.6094 24.4688 36.4062 24.375 36.1875C24.2812 35.9688 24.1406 35.7969 23.9531 35.6719C23.7969 35.2969 23.7031 34.9219 23.6719 34.5469C23.6719 34.1719 23.6406 33.7812 23.5781 33.375C23.5469 33.25 23.5156 33.1406 23.4844 33.0469C23.4531 32.9219 23.4219 32.7969 23.3906 32.6719C23.3281 32.4219 23.3125 32.1719 23.3438 31.9219C23.3438 31.6719 23.2969 31.4219 23.2031 31.1719C23.3594 30.6406 23.375 30.1562 23.25 29.7188C23.3125 29.5 23.3906 29.2188 23.4844 28.875C23.5781 28.5 23.6406 28.1875 23.6719 27.9375C23.7031 27.625 23.7344 27.3438 23.7656 27.0938C23.8281 26.8125 23.9062 26.5625 24 26.3438C24.0938 26.0938 24.2031 25.8438 24.3281 25.5938C24.4531 25.3125 24.6094 25 24.7969 24.6562C24.9219 24.375 25.0625 24.0938 25.2188 23.8125C25.375 23.5312 25.5312 23.2344 25.6875 22.9219C25.8438 22.6094 25.9375 22.4062 25.9688 22.3125C26.0312 22.2188 26.1406 22.0469 26.2969 21.7969C26.3906 21.6406 26.4688 21.5 26.5312 21.375C26.5938 21.25 26.7031 21.1094 26.8594 20.9531C27.1094 20.7031 27.3438 20.5156 27.5625 20.3906C27.7812 20.2344 28.0469 20.0781 28.3594 19.9219C28.5156 19.9531 28.6875 19.9531 28.875 19.9219C29.0938 19.8594 29.2969 19.8125 29.4844 19.7812C29.7031 19.7188 29.8906 19.6875 30.0469 19.6875C30.2031 19.6562 30.3125 19.6875 30.375 19.7812ZM49.9688 22.6406C49.75 22.9219 49.5312 23.1875 49.3125 23.4375C49.0938 23.6875 48.8438 23.9219 48.5625 24.1406C48.375 24.4844 48.1562 24.7969 47.9062 25.0781C47.6562 25.3594 47.4062 25.625 47.1562 25.875C47.0312 26.125 46.8906 26.3281 46.7344 26.4844C46.5781 26.6094 46.4062 26.75 46.2188 26.9062C46.125 27.0625 46 27.2188 45.8438 27.375C45.7188 27.5312 45.5938 27.6875 45.4688 27.8438C45.375 28 45.2969 28.1719 45.2344 28.3594C45.1719 28.5469 45.1875 28.75 45.2812 28.9688C45.625 29.0312 45.9688 28.9844 46.3125 28.8281C46.6562 28.6719 46.9531 28.5312 47.2031 28.4062C47.4531 28.25 47.7031 28.125 47.9531 28.0312C48.2344 27.9062 48.4844 27.7656 48.7031 27.6094L49.9219 26.3906C50.1406 26.2031 50.3281 26 50.4844 25.7812C50.6406 25.5625 50.8125 25.3281 51 25.0781C51.0625 24.7656 51.1875 24.4531 51.375 24.1406C51.5625 23.7969 51.6406 23.4688 51.6094 23.1562C51.5781 22.9688 51.5156 22.8125 51.4219 22.6875C51.3594 22.5312 51.3125 22.375 51.2812 22.2188C50.9688 22.2188 50.7188 22.2812 50.5312 22.4062C50.375 22.5 50.1875 22.5781 49.9688 22.6406ZM42.4219 25.6406C42.4844 25.6094 42.6094 25.4844 42.7969 25.2656C43.0156 25.0156 43.25 24.75 43.5 24.4688C43.75 24.1562 43.9844 23.8906 44.2031 23.6719C44.4219 23.4219 44.5781 23.2812 44.6719 23.25C44.7656 23.0938 44.8438 22.9688 44.9062 22.875C45 22.75 45.125 22.6406 45.2812 22.5469C45.5312 22.0781 45.8594 21.7031 46.2656 21.4219C46.6719 21.1094 47.0625 20.75 47.4375 20.3438C48.0312 20.0938 48.625 19.7812 49.2188 19.4062C49.8438 19 50.5312 18.7812 51.2812 18.75C51.625 18.9062 51.9531 18.9531 52.2656 18.8906C52.6094 18.8281 52.9219 18.9062 53.2031 19.125C53.3594 19.4062 53.5 19.5938 53.625 19.6875C53.75 19.75 53.8438 19.8281 53.9062 19.9219C54.0312 20.3281 54.125 20.5938 54.1875 20.7188C54.25 20.8125 54.2969 20.9375 54.3281 21.0938C54.3594 21.5625 54.3906 21.9062 54.4219 22.125C54.4531 22.3125 54.4531 22.5 54.4219 22.6875C54.3281 23.5312 54.1719 24.3281 53.9531 25.0781C53.8906 25.2656 53.8281 25.4688 53.7656 25.6875C53.7031 25.875 53.625 26.0469 53.5312 26.2031C53.3125 26.4844 53.1406 26.7344 53.0156 26.9531C52.9219 27.1406 52.8281 27.2969 52.7344 27.4219C52.3594 27.7969 52.0312 28.1094 51.75 28.3594C51.4688 28.5156 51.1875 28.6875 50.9062 28.875C50.625 29.0625 50.3125 29.1875 49.9688 29.25C49.8125 29.3438 49.6719 29.4375 49.5469 29.5312C49.4219 29.5938 49.2656 29.6406 49.0781 29.6719C48.7656 29.8906 48.4531 30.0625 48.1406 30.1875C47.8281 30.2812 47.5 30.4062 47.1562 30.5625C46.9688 30.625 46.7656 30.7344 46.5469 30.8906C46.3281 31.0469 46.1094 31.1719 45.8906 31.2656C45.7031 31.3281 45.4688 31.3906 45.1875 31.4531C44.9375 31.4844 44.7344 31.5312 44.5781 31.5938C44.7344 31.9375 44.7969 32.3281 44.7656 32.7656C44.7344 33.2031 44.8125 33.5938 45 33.9375C45.4062 34.0312 45.8438 34.1094 46.3125 34.1719C46.8125 34.2031 47.2812 34.1875 47.7188 34.125C47.875 34.0938 48.0469 34.0469 48.2344 33.9844C48.4219 33.8906 48.6094 33.8281 48.7969 33.7969C49.1406 33.7344 49.4688 33.6562 49.7812 33.5625C50.125 33.4688 50.4219 33.3438 50.6719 33.1875C51.5781 32.875 52.4531 32.4531 53.2969 31.9219C54.1406 31.3906 54.875 30.8125 55.5 30.1875C55.875 29.9375 56.2812 29.5938 56.7188 29.1562C57.1875 28.7188 57.5469 28.3125 57.7969 27.9375C58.2656 27.4375 58.6719 27.0469 59.0156 26.7656C59.3906 26.4844 59.7344 26.3594 60.0469 26.3906C60.2969 26.3906 60.5312 26.5469 60.75 26.8594C61 27.1406 60.9844 27.4531 60.7031 27.7969C60.3906 27.9844 60.0625 28.2656 59.7188 28.6406C59.375 29.0156 59.0156 29.2812 58.6406 29.4375C58.3594 29.625 58 29.9688 57.5625 30.4688C57.1562 30.9688 56.8125 31.3438 56.5312 31.5938C56.4062 31.7188 56.2344 31.875 56.0156 32.0625C55.8281 32.2188 55.6719 32.375 55.5469 32.5312C55.1094 32.9062 54.6406 33.25 54.1406 33.5625C53.9531 33.5 53.8125 33.5312 53.7188 33.6562C53.625 33.7812 53.5 33.9062 53.3438 34.0312C53.25 34.0938 53.1406 34.1562 53.0156 34.2188C52.9219 34.2812 52.8281 34.3438 52.7344 34.4062C52.4844 34.625 52.2031 34.8438 51.8906 35.0625C51.6094 35.2812 51.3125 35.4688 51 35.625C50.375 36 49.75 36.3125 49.125 36.5625C48.5 36.8438 47.8906 37.1875 47.2969 37.5938C47.1094 37.625 46.9375 37.6406 46.7812 37.6406C46.625 37.6719 46.4688 37.7031 46.3125 37.7344C46.125 37.7969 45.9531 37.8281 45.7969 37.8281C45.6719 37.8281 45.4844 37.7969 45.2344 37.7344C44.6719 37.5781 44.2031 37.3906 43.8281 37.1719C43.4531 36.9531 43.0781 36.6406 42.7031 36.2344C42.5156 36.0469 42.3125 35.875 42.0938 35.7188C41.875 35.5625 41.7031 35.3906 41.5781 35.2031C41.4844 35.0469 41.375 34.7969 41.25 34.4531C41.125 34.1094 41.0156 33.75 40.9219 33.375C40.8281 32.9688 40.75 32.5781 40.6875 32.2031C40.625 31.8281 40.5938 31.5469 40.5938 31.3594C40.6562 31.2344 40.7344 31.0156 40.8281 30.7031C40.8906 30.3906 40.9688 30.0625 41.0625 29.7188C41.125 29.3438 41.1875 29 41.25 28.6875C41.2812 28.375 41.2969 28.1562 41.2969 28.0312C41.3281 28 41.4062 27.875 41.5312 27.6562C41.6562 27.4062 41.7969 27.1406 41.9531 26.8594C42.0781 26.5781 42.1875 26.3281 42.2812 26.1094C42.375 25.8594 42.4219 25.7031 42.4219 25.6406ZM61.3125 30.2344C61.5625 30.0781 61.7656 29.875 61.9219 29.625C62.0781 29.375 62.2656 29.125 62.4844 28.875C62.8906 28.4062 63.3281 28.0156 63.7969 27.7031C64.0156 27.3906 64.2812 27.1562 64.5938 27C64.9375 26.8125 65.2031 26.5469 65.3906 26.2031C65.4531 26.1094 65.5 26.0156 65.5312 25.9219C65.5938 25.8281 65.6562 25.7344 65.7188 25.6406C66.2812 24.8594 66.9219 24.1719 67.6406 23.5781C67.8281 23.4219 68 23.2656 68.1562 23.1094C68.3438 22.9531 68.5625 22.7969 68.8125 22.6406C69.0938 22.4844 69.3594 22.2812 69.6094 22.0312C69.8906 21.7812 70.1875 21.5938 70.5 21.4688C70.7188 21.375 70.9219 21.3125 71.1094 21.2812C71.2969 21.2188 71.5 21.1562 71.7188 21.0938C71.9375 21.0312 72.125 20.9844 72.2812 20.9531C72.4688 20.8906 72.6719 20.8906 72.8906 20.9531C73.3906 21.1719 73.7656 21.5938 74.0156 22.2188C74.0781 22.375 74.0469 22.7188 73.9219 23.25C73.8281 23.75 73.6875 24.3125 73.5 24.9375C73.3438 25.5312 73.1719 26.1094 72.9844 26.6719C72.7969 27.2344 72.6719 27.6406 72.6094 27.8906C72.5469 28.1406 72.5312 28.2812 72.5625 28.3125C72.5938 28.3125 72.6094 28.3438 72.6094 28.4062C72.5469 28.5625 72.5 28.7031 72.4688 28.8281C72.4375 28.9531 72.4062 29.0938 72.375 29.25C72.3125 29.5 72.2656 29.8438 72.2344 30.2812C72.2031 30.6875 72.2188 31.0156 72.2812 31.2656C72.625 31.2344 72.7969 31.2031 72.7969 31.1719C72.8281 31.1406 72.875 31.125 72.9375 31.125C73.0312 31.0938 73.125 31.0938 73.2188 31.125C73.3438 31.125 73.4531 31.1094 73.5469 31.0781C73.8906 30.9844 74.2031 30.8594 74.4844 30.7031C74.7656 30.5156 75.0312 30.2969 75.2812 30.0469C75.8438 29.7969 76.3594 29.5469 76.8281 29.2969C77.2656 28.9844 77.6094 28.7656 77.8594 28.6406C78.1406 28.4844 78.5469 28.2812 79.0781 28.0312C79.2656 27.8125 79.5312 27.625 79.875 27.4688C80.25 27.2812 80.5625 27.0781 80.8125 26.8594C80.875 26.7969 80.9531 26.7188 81.0469 26.625C81.1406 26.5 81.2344 26.4688 81.3281 26.5312C81.4844 26.6875 81.5781 26.8594 81.6094 27.0469C81.6719 27.2031 81.6875 27.3125 81.6562 27.375C81.4062 27.625 81.2656 27.8125 81.2344 27.9375C81.2344 28.0625 81.2031 28.1562 81.1406 28.2188C80.9844 28.375 80.75 28.5156 80.4375 28.6406C80.1562 28.7656 79.9844 28.875 79.9219 28.9688C79.8906 29.0312 79.8438 29.0938 79.7812 29.1562C79.7188 29.2188 79.625 29.2969 79.5 29.3906C79.4062 29.4531 79.3281 29.5156 79.2656 29.5781C79.2031 29.6719 79.1094 29.7344 78.9844 29.7656C78.8906 29.7656 78.7969 29.7812 78.7031 29.8125C78.5156 29.9688 78.3594 30.1094 78.2344 30.2344C78.1094 30.3594 77.9688 30.5 77.8125 30.6562C77.5625 30.9062 77.4062 31.0938 77.3438 31.2188C77.2812 31.3125 77.1094 31.4531 76.8281 31.6406C76.6719 31.7344 76.5156 31.8281 76.3594 31.9219C76.2031 32.0156 76.0469 32.1094 75.8906 32.2031C75.4531 32.4219 75.0156 32.6875 74.5781 33C74.1406 33.3125 73.7031 33.625 73.2656 33.9375C72.9531 34.125 72.625 34.2969 72.2812 34.4531C71.9688 34.5781 71.6719 34.7344 71.3906 34.9219C71.2656 34.9219 71.1719 34.9219 71.1094 34.9219C71.0781 34.8906 71 34.9062 70.875 34.9688C70.7188 34.875 70.5625 34.875 70.4062 34.9688C70.25 35.0312 70.0938 35.0312 69.9375 34.9688C69.625 34.7188 69.4062 34.5625 69.2812 34.5C69.1875 34.4375 69.1094 34.3594 69.0469 34.2656C68.9844 34.1094 68.9531 33.9375 68.9531 33.75C68.9844 33.5625 68.9531 33.4062 68.8594 33.2812C68.8594 32.5938 68.875 31.9375 68.9062 31.3125C68.9688 30.6875 69.0781 30.0312 69.2344 29.3438C69.2656 29.125 69.3281 28.8281 69.4219 28.4531C69.5156 28.0469 69.5938 27.6562 69.6562 27.2812C69.7188 26.9062 69.7656 26.5781 69.7969 26.2969C69.8281 26.0156 69.7969 25.8438 69.7031 25.7812C69.3594 25.9688 69 26.25 68.625 26.625C68.2812 27 67.9531 27.3125 67.6406 27.5625C67.3906 27.75 67.1406 27.9219 66.8906 28.0781C66.6719 28.2344 66.4375 28.4062 66.1875 28.5938C65.9688 28.75 65.7812 28.9062 65.625 29.0625C65.4688 29.2188 65.2969 29.4062 65.1094 29.625C64.8906 29.8438 64.6875 30.0625 64.5 30.2812C64.3125 30.4688 64.0938 30.6562 63.8438 30.8438C63.7188 30.9688 63.5938 31.0781 63.4688 31.1719C63.375 31.2344 63.2812 31.3125 63.1875 31.4062C63.0312 31.5625 62.875 31.7188 62.7188 31.875C62.5938 32 62.4219 32.1094 62.2031 32.2031C62.0156 32.4531 61.7656 32.7344 61.4531 33.0469C61.1719 33.3594 60.875 33.7031 60.5625 34.0781C60.2812 34.4219 60 34.7656 59.7188 35.1094C59.4375 35.4531 59.2188 35.7656 59.0625 36.0469C58.6875 36.3594 58.2812 36.625 57.8438 36.8438C57.4375 37.0938 56.9375 37.125 56.3438 36.9375C56.0312 36.75 55.8281 36.5938 55.7344 36.4688C55.6406 36.3438 55.5312 36.25 55.4062 36.1875C55.4375 35.8438 55.4688 35.5156 55.5 35.2031C55.5312 34.8906 55.625 34.5625 55.7812 34.2188C55.8125 34.1562 55.8594 34.0938 55.9219 34.0312C55.9531 33.9375 56 33.8438 56.0625 33.75C56.2188 33.4688 56.3281 33.1562 56.3906 32.8125C56.4219 32.4688 56.5156 32.1406 56.6719 31.8281C56.8594 31.5156 56.9844 31.2656 57.0469 31.0781C57.0781 30.8594 57.1406 30.6719 57.2344 30.5156C57.2969 30.3594 57.3906 30.2188 57.5156 30.0938C57.6094 29.9375 57.6875 29.7812 57.75 29.625C57.8125 29.4688 57.9219 29.2969 58.0781 29.1094C58.2344 28.8906 58.3438 28.7031 58.4062 28.5469C58.5 28.2031 58.6094 27.8594 58.7344 27.5156C58.8594 27.1719 59 26.8281 59.1562 26.4844C59.2188 26.2656 59.2812 26.0625 59.3438 25.875C59.4062 25.6562 59.4844 25.4531 59.5781 25.2656C59.7344 24.9219 59.8906 24.5938 60.0469 24.2812C60.2031 23.9375 60.3594 23.5938 60.5156 23.25C60.6094 23.0625 60.6875 22.9062 60.75 22.7812C60.8438 22.625 60.9531 22.4688 61.0781 22.3125C61.1719 22.1562 61.25 22 61.3125 21.8438C61.4062 21.6875 61.5 21.5312 61.5938 21.375C61.6875 21.2188 61.7656 21.0469 61.8281 20.8594C61.9219 20.6406 62.0469 20.4375 62.2031 20.25C62.4219 20 62.5938 19.7656 62.7188 19.5469C62.8438 19.3281 63.0469 19.1875 63.3281 19.125C63.4531 19.1875 63.5781 19.1875 63.7031 19.125C63.8594 19.0625 64 19.0156 64.125 18.9844C64.2812 18.9219 64.4219 18.8906 64.5469 18.8906C64.6719 18.8594 64.7812 18.9062 64.875 19.0312C65.2812 19.2812 65.5781 19.5 65.7656 19.6875C65.9531 19.875 66.0781 20.0469 66.1406 20.2031C66.2969 20.4844 66.3125 20.7812 66.1875 21.0938C66.0625 21.375 65.8438 21.625 65.5312 21.8438C65.4062 22.375 65.1875 22.875 64.875 23.3438C64.5625 23.8125 64.2812 24.2656 64.0312 24.7031C63.9688 24.8594 63.9062 25.0156 63.8438 25.1719C63.7812 25.3281 63.7188 25.4844 63.6562 25.6406C63.4688 26.0781 63.2656 26.5156 63.0469 26.9531C62.8594 27.3906 62.6406 27.8125 62.3906 28.2188C62.2656 28.4688 62.1562 28.6719 62.0625 28.8281C61.9688 28.9844 61.875 29.125 61.7812 29.25C61.6875 29.3438 61.6094 29.4688 61.5469 29.625C61.4844 29.7812 61.4062 29.9844 61.3125 30.2344ZM92.3438 10.125C92.75 10.1875 93.0938 10.2344 93.375 10.2656C93.6562 10.2969 93.9062 10.3281 94.125 10.3594C94.375 10.3594 94.625 10.3594 94.875 10.3594C95.125 10.3281 95.4375 10.2812 95.8125 10.2188C96.5 10.125 97.1094 10.0469 97.6406 9.98438C98.2031 9.89062 98.8125 9.8125 99.4688 9.75C99.6562 9.71875 99.8438 9.71875 100.031 9.75C100.25 9.78125 100.453 9.79688 100.641 9.79688C101.047 9.79688 101.438 9.78125 101.812 9.75C102.219 9.71875 102.594 9.6875 102.938 9.65625C103.062 9.625 103.172 9.59375 103.266 9.5625C103.359 9.53125 103.453 9.53125 103.547 9.5625C103.828 9.5625 104.109 9.5625 104.391 9.5625C104.672 9.53125 104.922 9.625 105.141 9.84375C105.234 10.1562 105.266 10.3281 105.234 10.3594C105.203 10.3906 105.172 10.4375 105.141 10.5C105.109 10.9062 105.047 11.1094 104.953 11.1094C104.891 11.1094 104.859 11.1406 104.859 11.2031C104.609 11.2656 104.391 11.3281 104.203 11.3906C104.047 11.4219 103.922 11.5156 103.828 11.6719C103.297 11.7969 102.797 11.8281 102.328 11.7656C101.891 11.6719 101.438 11.7344 100.969 11.9531C100.75 12.0469 100.516 12.1719 100.266 12.3281C100.047 12.4531 99.7656 12.4531 99.4219 12.3281C99.1094 12.3281 98.75 12.3438 98.3438 12.375C97.9375 12.4062 97.5469 12.4375 97.1719 12.4688C96.4531 12.5312 95.8281 12.5938 95.2969 12.6562C94.7969 12.6875 94.3125 12.7188 93.8438 12.75C93.375 12.75 92.8906 12.7656 92.3906 12.7969C91.9219 12.8281 91.3438 12.8438 90.6562 12.8438C90.4062 13.0625 90.2344 13.3281 90.1406 13.6406C90.0781 13.9531 89.9219 14.2031 89.6719 14.3906C89.4219 14.9844 89.2188 15.3906 89.0625 15.6094C88.9062 15.7969 88.7969 16.0312 88.7344 16.3125C88.2969 16.875 87.8906 17.4688 87.5156 18.0938C87.1719 18.6875 86.7656 19.25 86.2969 19.7812C86.2344 20.125 86.1094 20.4375 85.9219 20.7188C85.7656 20.9688 85.6562 21.3125 85.5938 21.75C85.25 22.2188 85 22.7344 84.8438 23.2969C84.6875 23.8594 84.4844 24.4531 84.2344 25.0781C84.1719 25.3281 84.0938 25.5781 84 25.8281C83.9375 26.0469 83.8594 26.2812 83.7656 26.5312C83.6406 26.8438 83.4844 27.1406 83.2969 27.4219C83.1406 27.6719 82.9844 27.9531 82.8281 28.2656C82.7656 28.3281 82.7344 28.4219 82.7344 28.5469C82.7344 28.6406 82.7188 28.7188 82.6875 28.7812C82.5938 29 82.5 29.2031 82.4062 29.3906C82.3125 29.5469 82.2344 29.7031 82.1719 29.8594C82.1094 30.0156 82.0625 30.1875 82.0312 30.375C82.0312 30.5312 82 30.6875 81.9375 30.8438C81.9062 30.9375 81.875 31.0312 81.8438 31.125C81.8125 31.1875 81.7812 31.2656 81.75 31.3594C81.6562 31.7969 81.6562 32.0938 81.75 32.25C81.8438 32.4062 81.9219 32.5625 81.9844 32.7188C82.0469 32.9062 82.1094 33.0781 82.1719 33.2344C82.2344 33.3594 82.2812 33.5 82.3125 33.6562C82.4688 33.7188 82.6094 33.7812 82.7344 33.8438C82.8906 33.9062 83.0469 33.9375 83.2031 33.9375C83.3906 33.9688 83.5938 33.8906 83.8125 33.7031C84.0312 33.4844 84.2188 33.3594 84.375 33.3281C84.5938 33.2656 84.7969 33.2344 84.9844 33.2344C85.2031 33.2344 85.3906 33.1875 85.5469 33.0938C85.7344 32.9375 85.8906 32.7812 86.0156 32.625C86.1406 32.4688 86.3125 32.3594 86.5312 32.2969C87.0312 32.1719 87.2969 32.0781 87.3281 32.0156C87.3594 31.9219 87.4688 31.7969 87.6562 31.6406C87.875 31.4844 88.0625 31.3438 88.2188 31.2188C88.4062 31.0625 88.625 30.9062 88.875 30.75C89.1875 30.5938 89.3594 30.5 89.3906 30.4688C89.4531 30.4375 89.5938 30.3281 89.8125 30.1406C90.125 29.9844 90.3906 29.8125 90.6094 29.625C90.8281 29.4375 91.0781 29.2656 91.3594 29.1094C91.6719 28.9844 91.8594 28.9062 91.9219 28.875C91.9844 28.8125 92.0156 28.7656 92.0156 28.7344C92.0469 28.7031 92.0781 28.6562 92.1094 28.5938C92.1719 28.5312 92.3281 28.4219 92.5781 28.2656C92.7031 28.0156 92.8438 27.8125 93 27.6562C93.1562 27.5 93.3438 27.2969 93.5625 27.0469C93.75 26.8281 93.9375 26.6406 94.125 26.4844C94.3438 26.3281 94.5312 26.1719 94.6875 26.0156C94.7812 25.9531 94.8594 25.8906 94.9219 25.8281C94.9844 25.7344 95.0938 25.6719 95.25 25.6406C95.4375 25.4844 95.5781 25.3594 95.6719 25.2656C95.7969 25.1406 95.9844 24.9688 96.2344 24.75C96.2969 24.6875 96.375 24.6094 96.4688 24.5156C96.5625 24.4219 96.6406 24.3594 96.7031 24.3281C96.8281 24.3281 96.9219 24.375 96.9844 24.4688C97.0781 24.5625 97.1875 24.6094 97.3125 24.6094C97.2812 25.0156 97.2656 25.2812 97.2656 25.4062C97.2656 25.5 97.2344 25.6094 97.1719 25.7344C96.9844 26.0156 96.7656 26.1719 96.5156 26.2031C96.2969 26.2344 96.125 26.4062 96 26.7188C95.9062 26.6562 95.7812 26.6406 95.625 26.6719C95.5 26.7031 95.4062 26.75 95.3438 26.8125C95.4062 26.9375 95.4375 27.0469 95.4375 27.1406C95.4375 27.2344 95.4531 27.3438 95.4844 27.4688C94.9219 28.0312 94.5469 28.4844 94.3594 28.8281C93.9844 29.2344 93.7812 29.4688 93.75 29.5312C93.7188 29.5625 93.7031 29.5781 93.7031 29.5781C93.7031 29.5781 93.6875 29.5938 93.6562 29.625C93.625 29.6562 93.5156 29.7656 93.3281 29.9531C92.8906 30.2969 92.5625 30.625 92.3438 30.9375C92.125 31.25 91.7969 31.5312 91.3594 31.7812C91.0156 32.0312 90.7812 32.2188 90.6562 32.3438C90.5312 32.4688 90.3438 32.6406 90.0938 32.8594C89.9688 32.9844 89.8438 33.125 89.7188 33.2812C89.625 33.4062 89.5 33.5312 89.3438 33.6562C89.125 33.8125 88.9062 33.9531 88.6875 34.0781C88.5 34.2031 88.3281 34.3594 88.1719 34.5469C87.7031 34.7656 87.3594 35.0156 87.1406 35.2969C86.9531 35.5781 86.6562 35.8438 86.25 36.0938C85.9688 36.2812 85.5781 36.5156 85.0781 36.7969C84.6094 37.0781 84.2031 37.2812 83.8594 37.4062C83.7656 37.4375 83.6719 37.4688 83.5781 37.5C83.5156 37.5312 83.4375 37.5625 83.3438 37.5938C83.0938 37.4375 82.8438 37.2812 82.5938 37.125C82.375 36.9688 82.1875 36.75 82.0312 36.4688C81.75 36.25 81.5156 36.0938 81.3281 36C81.1719 35.9062 81.0156 35.7812 80.8594 35.625C80.5469 35.0938 80.1875 34.5625 79.7812 34.0312C79.4062 33.5 79.1094 32.9062 78.8906 32.25C78.8281 32.125 78.7812 32 78.75 31.875C78.75 31.7188 78.7344 31.5625 78.7031 31.4062C78.6406 31.1562 78.5781 30.9375 78.5156 30.75C78.4531 30.5625 78.4375 30.3281 78.4688 30.0469C78.4688 29.8594 78.5 29.6562 78.5625 29.4375C78.625 29.2188 78.6875 28.9844 78.75 28.7344C78.875 28.3281 79.0156 27.9375 79.1719 27.5625C79.3594 27.1875 79.5 26.7812 79.5938 26.3438C79.6875 26 79.7812 25.6875 79.875 25.4062C79.9688 25.125 80.0781 24.8125 80.2031 24.4688C80.2656 24.3125 80.2969 24.1719 80.2969 24.0469C80.3281 23.8906 80.4219 23.7812 80.5781 23.7188C80.7031 23.0938 80.9062 22.5 81.1875 21.9375C81.4688 21.3438 81.75 20.7812 82.0312 20.25C82.375 19.5938 82.6875 18.9219 82.9688 18.2344C83.2812 17.5469 83.6094 16.875 83.9531 16.2188C83.9844 15.8438 84.1094 15.5312 84.3281 15.2812C84.3594 14.9375 84.4844 14.6094 84.7031 14.2969C84.9219 13.9531 85.0781 13.6094 85.1719 13.2656C84.8281 13.1719 84.4375 13.1719 84 13.2656C83.5938 13.3281 83.2344 13.3906 82.9219 13.4531C82.3594 13.4844 81.7656 13.4844 81.1406 13.4531C80.9219 13.4219 80.7031 13.3906 80.4844 13.3594C80.2969 13.2969 80.1094 13.2656 79.9219 13.2656C79.6406 13.2969 79.4219 13.2812 79.2656 13.2188C79.1406 13.125 79 13.1094 78.8438 13.1719C78.4375 12.8281 78.1406 12.5938 77.9531 12.4688C77.7656 12.3438 77.5938 12.2344 77.4375 12.1406C77.25 12.0156 77.0938 11.8906 76.9688 11.7656C76.8125 11.6094 76.6875 11.3906 76.5938 11.1094C76.5938 11.0156 76.6406 10.9375 76.7344 10.875C76.8281 10.8125 76.9062 10.75 76.9688 10.6875C77.2188 10.625 77.5 10.6094 77.8125 10.6406C78.125 10.6406 78.375 10.5781 78.5625 10.4531C79.0625 10.5156 79.5156 10.4844 79.9219 10.3594C80.3594 10.2344 80.8125 10.1875 81.2812 10.2188C81.375 10.2188 81.4688 10.2344 81.5625 10.2656C81.6562 10.2969 81.75 10.3125 81.8438 10.3125C82 10.3438 82.125 10.3438 82.2188 10.3125C82.3438 10.2812 82.4844 10.25 82.6406 10.2188C82.8281 10.1875 83.0312 10.1875 83.25 10.2188C83.4688 10.25 83.6875 10.25 83.9062 10.2188C84.3125 10.1875 84.7969 10.2344 85.3594 10.3594C85.9531 10.4531 86.4688 10.4219 86.9062 10.2656C87.0625 9.82812 87.2344 9.39062 87.4219 8.95312C87.6406 8.48438 87.8125 8.03125 87.9375 7.59375C88.0625 7.40625 88.1875 7.20312 88.3125 6.98438C88.4375 6.73437 88.5312 6.5 88.5938 6.28125C88.7812 5.96875 88.9219 5.71875 89.0156 5.53125C89.1406 5.34375 89.2812 5.15625 89.4375 4.96875C89.6562 4.53125 89.8125 4.10937 89.9062 3.70312C90.0312 3.26562 90.1875 2.79687 90.375 2.29688C90.7812 1.85937 91.1875 1.32813 91.5938 0.703125C91.8125 0.734375 91.9844 0.671875 92.1094 0.515625C92.2656 0.359375 92.4844 0.375 92.7656 0.5625C92.7656 0.65625 92.7969 0.75 92.8594 0.84375C92.9531 0.90625 92.9688 1.01562 92.9062 1.17188C93.0625 1.32813 93.1875 1.46875 93.2812 1.59375C93.375 1.71875 93.4531 1.85937 93.5156 2.01562C93.5781 2.26563 93.5469 2.5625 93.4219 2.90625C93.3281 3.21875 93.3594 3.51562 93.5156 3.79688C93.5781 3.95313 93.5938 4.10937 93.5625 4.26562C93.5312 4.39062 93.5469 4.51563 93.6094 4.64062C93.6719 4.79688 93.75 4.95312 93.8438 5.10938C93.9688 5.26563 94.0312 5.46875 94.0312 5.71875C94.0312 5.8125 94 5.9375 93.9375 6.09375C93.9062 6.21875 93.8594 6.35937 93.7969 6.51562C93.6719 6.98438 93.5781 7.3125 93.5156 7.5C93.4531 7.6875 93.3906 7.89062 93.3281 8.10938C93.1094 8.35938 93 8.53125 93 8.625C93 8.6875 92.9844 8.75 92.9531 8.8125C92.8594 9 92.75 9.23438 92.625 9.51562C92.5312 9.76562 92.4375 9.96875 92.3438 10.125ZM103.125 12.6562C103.188 12.75 103.219 12.8438 103.219 12.9375C103.219 13.0312 103.266 13.1094 103.359 13.1719C103.297 13.4531 103.234 13.75 103.172 14.0625C103.141 14.3438 103.125 14.625 103.125 14.9062C103.125 15.0312 103.156 15.1406 103.219 15.2344C103.312 15.3281 103.359 15.4219 103.359 15.5156C103.203 15.8906 103.078 16.1094 102.984 16.1719C102.922 16.2344 102.891 16.3125 102.891 16.4062C102.734 16.4688 102.609 16.5625 102.516 16.6875C102.453 16.8125 102.328 16.875 102.141 16.875C102.078 16.9688 102 17.0469 101.906 17.1094C101.844 17.1406 101.797 17.2188 101.766 17.3438C101.266 17.5625 100.703 17.5469 100.078 17.2969C99.9219 17.0156 99.7031 16.8125 99.4219 16.6875C99.0156 16.0938 99 15.3906 99.375 14.5781C99.4375 14.4219 99.5 14.2656 99.5625 14.1094C99.6562 13.9219 99.7344 13.7969 99.7969 13.7344C100.141 13.4844 100.391 13.3281 100.547 13.2656C100.672 13.2031 100.797 13.125 100.922 13.0312C101.078 12.9375 101.25 12.8594 101.438 12.7969C101.5 12.7656 101.578 12.75 101.672 12.75C101.797 12.75 101.922 12.7188 102.047 12.6562C102.172 12.625 102.281 12.5938 102.375 12.5625C102.469 12.5312 102.562 12.5156 102.656 12.5156L103.125 12.6562ZM95.8594 33.375C96.1406 33.25 96.4844 33.2031 96.8906 33.2344C97.2969 33.2656 97.625 33.2031 97.875 33.0469C98 32.9531 98.1094 32.8594 98.2031 32.7656C98.2969 32.6719 98.4062 32.6406 98.5312 32.6719C99.0312 32.4844 99.4531 32.2969 99.7969 32.1094C100.141 31.9219 100.516 31.7812 100.922 31.6875C101.016 31.6562 101.125 31.5938 101.25 31.5C101.406 31.4062 101.516 31.3281 101.578 31.2656C102.078 31.1094 102.438 30.9531 102.656 30.7969C102.875 30.6406 103.078 30.4844 103.266 30.3281C103.484 30.1719 103.688 30.0156 103.875 29.8594C104.094 29.6719 104.359 29.4531 104.672 29.2031C105.109 28.9531 105.469 28.7344 105.75 28.5469C106.062 28.3594 106.391 28.125 106.734 27.8438C106.797 27.6875 106.875 27.5781 106.969 27.5156C107.094 27.4219 107.188 27.3125 107.25 27.1875C107.812 27.1875 108.125 27.4062 108.188 27.8438C108.031 28.1875 107.812 28.4688 107.531 28.6875C107.281 28.9062 107.047 29.1562 106.828 29.4375C106.578 29.5938 106.375 29.7344 106.219 29.8594C106.062 29.9844 105.906 30.1719 105.75 30.4219C105.719 30.4219 105.625 30.5 105.469 30.6562C105.312 30.7812 105.219 30.8438 105.188 30.8438C105 31.0625 104.859 31.2031 104.766 31.2656C104.703 31.3281 104.641 31.375 104.578 31.4062C104.547 31.4062 104.484 31.4375 104.391 31.5C104.328 31.5625 104.188 31.6875 103.969 31.875C103.75 32.2188 103.469 32.5 103.125 32.7188C102.469 33.3438 101.75 33.8906 100.969 34.3594C100.219 34.7969 99.5312 35.2344 98.9062 35.6719C98.7812 35.7344 98.6719 35.8281 98.5781 35.9531C98.4844 36.0469 98.375 36.1406 98.25 36.2344C98.0938 36.3594 97.8438 36.4844 97.5 36.6094C97.1875 36.7344 96.9062 36.8438 96.6562 36.9375C96.4688 37.0625 96.2969 37.1562 96.1406 37.2188C95.4531 37.25 94.9219 37.1406 94.5469 36.8906C94.1406 36.6719 93.8281 36.5 93.6094 36.375C93.3906 36.25 93.2031 36.0469 93.0469 35.7656C92.7031 35.6094 92.4844 35.3281 92.3906 34.9219C92.3281 34.4844 92.25 34.0625 92.1562 33.6562C92.125 33.5 92.0938 33.3281 92.0625 33.1406C92.0312 32.9219 92.0312 32.7031 92.0625 32.4844C92.125 32.1406 92.1719 31.7812 92.2031 31.4062C92.2344 31 92.3125 30.6562 92.4375 30.375C92.5938 30.0312 92.6719 29.6875 92.6719 29.3438C92.7031 29 92.7969 28.6562 92.9531 28.3125C93.1406 28 93.2188 27.8281 93.1875 27.7969C93.1875 27.7656 93.2031 27.7188 93.2344 27.6562C93.2969 27.5625 93.3594 27.4688 93.4219 27.375C93.5156 27.2812 93.5938 27.1719 93.6562 27.0469L93.9375 26.3438C94.0625 26.125 94.2031 25.9062 94.3594 25.6875C94.5156 25.4688 94.6406 25.2031 94.7344 24.8906C94.7969 24.7031 94.875 24.5312 94.9688 24.375C95.0938 24.2188 95.2188 24.0469 95.3438 23.8594C95.4375 23.6719 95.5156 23.4844 95.5781 23.2969C95.6406 23.0781 95.7188 22.8594 95.8125 22.6406C95.9062 22.3906 96.0156 22.1406 96.1406 21.8906C96.2969 21.6406 96.4531 21.3906 96.6094 21.1406C96.7344 20.8906 96.8438 20.7031 96.9375 20.5781C97.0312 20.4531 97.2188 20.375 97.5 20.3438C97.625 20.3125 97.7656 20.3281 97.9219 20.3906C98.0781 20.4219 98.2344 20.4062 98.3906 20.3438C98.7969 20.1562 99.0781 20.0625 99.2344 20.0625C99.3906 20.0625 99.5 20.0156 99.5625 19.9219C99.9062 19.9531 100.156 20.0625 100.312 20.25C100.469 20.4375 100.656 20.625 100.875 20.8125C100.688 21.7188 100.469 22.4219 100.219 22.9219C100 23.3906 99.75 23.8906 99.4688 24.4219C99.3125 24.6719 99.1562 24.9531 99 25.2656C98.8438 25.5781 98.7031 25.8594 98.5781 26.1094C98.4219 26.4531 98.25 26.7656 98.0625 27.0469C97.9062 27.2969 97.7656 27.5938 97.6406 27.9375C97.5781 28.0938 97.5 28.25 97.4062 28.4062C97.3438 28.5312 97.2812 28.6719 97.2188 28.8281C97.1562 29.0469 97.0625 29.25 96.9375 29.4375C96.8438 29.5938 96.75 29.75 96.6562 29.9062C96.5625 30.0938 96.4688 30.2812 96.375 30.4688C96.2812 30.6562 96.2031 30.8594 96.1406 31.0781C95.9844 31.4531 95.8906 31.6875 95.8594 31.7812C95.8281 31.8438 95.7969 31.9062 95.7656 31.9688C95.7031 32.3125 95.6094 32.5938 95.4844 32.8125C95.3594 33.0312 95.4062 33.1875 95.625 33.2812L95.8594 33.375ZM119.531 23.3438C119.562 23.4375 119.531 23.625 119.438 23.9062C119.281 24.0938 119.188 24.2969 119.156 24.5156C119.094 24.6406 119.031 24.75 118.969 24.8438C118.938 24.9375 118.906 25.0625 118.875 25.2188C118.812 25.4062 118.781 25.625 118.781 25.875C118.812 26.125 118.812 26.3594 118.781 26.5781C118.719 26.9219 118.672 27.2656 118.641 27.6094C118.609 27.9219 118.578 28.25 118.547 28.5938C118.547 28.9375 118.516 29.3281 118.453 29.7656C118.391 30.2031 118.328 30.5938 118.266 30.9375C118.391 31.1562 118.469 31.3906 118.5 31.6406C118.531 31.8906 118.641 32.0938 118.828 32.25C119.453 32.1562 119.953 32.0156 120.328 31.8281C120.703 31.6094 121.062 31.3125 121.406 30.9375C121.688 30.8125 121.875 30.7031 121.969 30.6094C122.094 30.5156 122.281 30.3906 122.531 30.2344C122.594 30.1719 122.656 30.1094 122.719 30.0469C122.781 29.9844 122.844 29.9219 122.906 29.8594C123.25 29.6719 123.453 29.5469 123.516 29.4844C123.609 29.4219 123.719 29.3594 123.844 29.2969C124.375 28.9531 124.781 28.5938 125.062 28.2188C125.344 28 125.531 27.8125 125.625 27.6562C125.75 27.4688 126 27.2969 126.375 27.1406C126.594 26.8906 126.812 26.6875 127.031 26.5312C127.281 26.3438 127.516 26.125 127.734 25.875C127.891 25.875 128.016 25.9062 128.109 25.9688C128.203 26.0312 128.312 26.0938 128.438 26.1562C128.531 26.4062 128.547 26.6719 128.484 26.9531C128.422 27.2031 128.312 27.4375 128.156 27.6562C128 27.875 127.922 28 127.922 28.0312C127.922 28.0625 127.906 28.0938 127.875 28.125C127.781 28.25 127.656 28.375 127.5 28.5C127.375 28.5938 127.266 28.7031 127.172 28.8281C127.016 29.1094 126.891 29.25 126.797 29.25C126.703 29.25 126.625 29.2812 126.562 29.3438C126.281 29.5 126.078 29.625 125.953 29.7188C125.859 29.8125 125.688 29.9375 125.438 30.0938C125.094 30.2812 124.891 30.4062 124.828 30.4688C124.766 30.5312 124.703 30.5781 124.641 30.6094C124.234 31.0469 123.859 31.4062 123.516 31.6875C123.203 31.9375 122.859 32.2812 122.484 32.7188C122.359 32.8125 122.234 32.9062 122.109 33C121.984 33.0938 121.875 33.2188 121.781 33.375C121.5 33.5625 121.266 33.75 121.078 33.9375C120.922 34.125 120.734 34.3438 120.516 34.5938C120.328 34.6875 120.125 34.8281 119.906 35.0156C119.688 35.1719 119.453 35.3125 119.203 35.4375C119.078 35.5 118.938 35.5781 118.781 35.6719C118.656 35.7344 118.516 35.7656 118.359 35.7656C117.984 35.8281 117.641 35.7969 117.328 35.6719C117.016 35.5469 116.719 35.4531 116.438 35.3906C116.312 35.2031 116.156 35.0469 115.969 34.9219C115.688 34.5781 115.484 34.1719 115.359 33.7031C115.234 33.2344 115.109 32.7344 114.984 32.2031C114.734 32.3594 114.5 32.5625 114.281 32.8125C114.062 33.0625 113.781 33.2656 113.438 33.4219C112.812 34.0156 112.141 34.5938 111.422 35.1562C110.734 35.6875 110.031 36.25 109.312 36.8438C109.219 36.9375 109.125 37.0156 109.031 37.0781C108.938 37.1406 108.859 37.1562 108.797 37.125C108.641 37.3125 108.422 37.4219 108.141 37.4531C107.891 37.5156 107.609 37.5156 107.297 37.4531C106.984 37.2969 106.703 37.1875 106.453 37.125C106.203 37.0625 105.953 36.9688 105.703 36.8438C105.172 36.75 104.734 36.5156 104.391 36.1406C104.016 35.7656 103.703 35.3281 103.453 34.8281C103.359 34.5781 103.297 34.3438 103.266 34.125C103.203 33.9062 103.141 33.6562 103.078 33.375C103.047 33.125 103 32.9219 102.938 32.7656C102.875 32.5781 102.875 32.4062 102.938 32.25C102.875 32.1562 102.859 32.0625 102.891 31.9688C102.922 31.8438 102.938 31.7188 102.938 31.5938C102.906 31.1562 102.953 30.6875 103.078 30.1875C103.172 29.6875 103.312 29.2344 103.5 28.8281C103.562 28.7031 103.688 28.5469 103.875 28.3594C103.938 28.2656 103.984 28.1719 104.016 28.0781C104.047 27.9844 104.094 27.9062 104.156 27.8438C104.219 27.75 104.312 27.6562 104.438 27.5625C104.562 27.4688 104.672 27.375 104.766 27.2812C104.922 27.0625 105.094 26.875 105.281 26.7188C105.5 26.5312 105.703 26.3438 105.891 26.1562C105.984 26.0625 106.062 25.9531 106.125 25.8281C106.219 25.7031 106.344 25.6094 106.5 25.5469C106.625 25.3281 106.766 25.1562 106.922 25.0312C107.078 24.875 107.25 24.7188 107.438 24.5625C107.969 23.9062 108.625 23.3594 109.406 22.9219C110.188 22.4844 110.891 21.9844 111.516 21.4219C111.734 21.3281 111.922 21.2188 112.078 21.0938C112.234 20.9688 112.391 20.8438 112.547 20.7188C112.953 20.375 113.375 20.2656 113.812 20.3906C114.25 20.5156 114.656 20.625 115.031 20.7188C115.344 21 115.641 21.2812 115.922 21.5625C116.234 21.8438 116.5 22.1562 116.719 22.5C116.938 22.4688 117.188 22.4688 117.469 22.5C117.75 22.5 118.047 22.4688 118.359 22.4062C118.453 22.4062 118.547 22.3906 118.641 22.3594C118.734 22.2969 118.812 22.2656 118.875 22.2656C119.344 22.4219 119.578 22.6562 119.578 22.9688L119.531 23.3438ZM113.391 23.6719C112.547 24.0781 111.781 24.5625 111.094 25.125C110.406 25.6562 109.75 26.2344 109.125 26.8594C108.969 27.0156 108.797 27.1719 108.609 27.3281C108.453 27.4531 108.312 27.5938 108.188 27.75C108.062 27.9062 107.938 28.0938 107.812 28.3125C107.719 28.5312 107.625 28.7344 107.531 28.9219C107.469 29.0469 107.406 29.1562 107.344 29.25C107.281 29.3125 107.219 29.3906 107.156 29.4844C107.094 29.6406 107.062 29.7969 107.062 29.9531C107.094 30.1094 107.109 30.2812 107.109 30.4688C107.109 30.625 107.109 30.7812 107.109 30.9375C107.109 31.0938 107.125 31.25 107.156 31.4062C107.25 31.75 107.297 32.0938 107.297 32.4375C107.297 32.6875 107.312 33 107.344 33.375C107.406 33.7188 107.531 33.9531 107.719 34.0781C107.906 34.2031 108.094 34.2344 108.281 34.1719C108.5 34.1094 108.688 34.0625 108.844 34.0312C109.938 33.1875 110.969 32.3125 111.938 31.4062C112.906 30.4688 113.766 29.4219 114.516 28.2656C114.453 27.4531 114.438 26.6719 114.469 25.9219C114.531 25.1406 114.469 24.4219 114.281 23.7656C114.156 23.7031 114 23.6875 113.812 23.7188C113.656 23.7188 113.516 23.7031 113.391 23.6719Z" fill="#FFC700"/>
</svg>
